<svg width="45" height="45" fill="none" xmlns="http://www.w3.org/2000/svg"><path d="M22.5 3.75c-8.271 0-15 6.632-15 14.784 0 5.08 2.614 9.57 6.585 12.232v9.402c0 .367.19.71.502.909.313.199.707.228 1.046.078l6.867-3.046 6.867 3.046a1.112 1.112 0 001.046-.078c.313-.2.502-.542.502-.909v-9.402c3.971-2.662 6.585-7.152 6.585-12.232 0-8.152-6.729-14.784-15-14.784zm6.22 34.745l-5.77-2.558a1.11 1.11 0 00-.9 0l-5.77 2.558V31.99c.552.248 1.118.46 1.695.64l.098.031a14.372 14.372 0 00.566.16 14.348 14.348 0 00.997.226l.11.02c.094.018.19.034.285.05l.099.016c.098.016.197.03.297.043a15.05 15.05 0 00.395.049l.09.01c.1.011.202.02.303.029l.093.008.3.02c.033.001.065.004.097.006l.306.012.092.003a15.418 15.418 0 00.794 0c.031 0 .062-.002.092-.003l.306-.012.097-.007c.1-.005.2-.012.3-.02l.093-.008c.101-.008.203-.017.303-.028l.09-.01c.102-.011.203-.023.303-.036l.093-.013c.099-.013.198-.027.297-.043l.098-.016c.096-.016.191-.032.286-.05l.11-.02a14.95 14.95 0 001.562-.386l.098-.03c.577-.18 1.143-.393 1.695-.641v6.506zm-2.041-8.032l-.132.044a12.07 12.07 0 01-.917.265l-.117.028a10.7 10.7 0 01-.31.07l-.077.017a12.61 12.61 0 01-.401.076l-.042.007a12.73 12.73 0 01-.836.114l-.015.002c-.136.014-.273.025-.41.035l-.09.006a12.636 12.636 0 01-1.235.02l-.11-.004a13.12 13.12 0 01-.32-.017l-.089-.005c-.137-.01-.274-.021-.41-.035l-.015-.002a13.337 13.337 0 01-.836-.115l-.042-.006a12.84 12.84 0 01-.401-.077l-.078-.016a12.434 12.434 0 01-1.142-.298 13.44 13.44 0 01-.333-.109c-5.015-1.711-8.626-6.412-8.626-11.93 0-6.958 5.744-12.62 12.805-12.62 7.06 0 12.805 5.662 12.805 12.62 0 5.518-3.611 10.219-8.626 11.93z" fill="#332974"/><path d="M28.112 18.75l1.777-2.942a.747.747 0 00-.016-.808.971.971 0 00-.786-.416l-3.78-.116-2.005-2.826a.981.981 0 00-.802-.392.982.982 0 00-.802.392l-2.004 2.826-3.78.116a.971.971 0 00-.787.416.747.747 0 00-.016.808l1.777 2.942-1.777 2.942a.747.747 0 00.016.808.97.97 0 00.786.416l3.78.116 2.005 2.826a.981.981 0 00.802.392.98.98 0 00.802-.392l2.004-2.826 3.78-.116a.972.972 0 00.787-.416.747.747 0 00.016-.808l-1.777-2.942zm-3.374 2.631a.977.977 0 00-.77.392l-1.468 2.07-1.468-2.07a.977.977 0 00-.77-.392l-2.77-.084 1.302-2.156a.746.746 0 000-.782l-1.301-2.156 2.77-.084a.977.977 0 00.769-.392l1.468-2.07 1.468 2.07a.977.977 0 00.77.392l2.77.084-1.302 2.156a.747.747 0 000 .782l1.301 2.156-2.77.084z" fill="#332974"/></svg>