<svg width="45" height="45" fill="none" xmlns="http://www.w3.org/2000/svg"><circle cx="22.5" cy="22.5" r="21.5" stroke="#332974" stroke-width="2"/><path d="M17.93 17.762c1.144 0 2.05.334 2.72 1.003.68.657 1.02 1.627 1.02 2.907v5.185h-1.632V21.86c0-.873-.21-1.53-.63-1.972-.419-.442-1.02-.663-1.801-.663-.884 0-1.581.26-2.091.782-.51.51-.765 1.247-.765 2.21v4.641h-1.632V14.243h1.632v4.88a3.38 3.38 0 011.326-1.004 4.657 4.657 0 011.853-.357zm11.57 0c1.146 0 2.052.334 2.72 1.003.68.657 1.02 1.627 1.02 2.907v5.185h-1.63V21.86c0-.873-.21-1.53-.63-1.972-.418-.442-1.02-.663-1.801-.663-.884 0-1.581.26-2.091.782-.51.51-.765 1.247-.765 2.21v4.641H24.69V14.243h1.632v4.88a3.38 3.38 0 011.326-1.004 4.657 4.657 0 011.853-.357z" fill="#332974"/></svg>