<svg width="45" height="45" fill="none" xmlns="http://www.w3.org/2000/svg"><path d="M38.17 5.625c-.187 0-.372.043-.54.127l-9.133 4.568-10.329-4.59c-.017-.008-.036-.01-.054-.016a1.204 1.204 0 00-.143-.044 1.253 1.253 0 00-.145-.03 1.794 1.794 0 00-.294 0 1.18 1.18 0 00-.146.03 1.209 1.209 0 00-.142.044c-.019.007-.038.008-.055.015L6.341 10.551a1.205 1.205 0 00-.716 1.101V38.17a1.205 1.205 0 001.695 1.1l10.359-4.604 10.358 4.604c.018.008.038 0 .056.011.292.13.627.123.912-.02.02-.009.041 0 .06-.014l9.643-4.82c.41-.205.667-.623.667-1.08V6.831c0-.666-.539-1.206-1.205-1.206zm-21.697 26.94l-8.437 3.75v-23.88l8.437-3.75v23.88zm10.849 3.75l-8.438-3.75V8.685l8.438 3.75v23.88zm9.642-3.712l-7.232 3.616V12.397l7.232-3.616v23.822z" fill="#332974"/></svg>