<svg width="30" height="30" fill="none" xmlns="http://www.w3.org/2000/svg"><path fill-rule="evenodd" clip-rule="evenodd" d="M15 28.75C7.406 28.75 1.25 22.594 1.25 15S7.406 1.25 15 1.25 28.75 7.406 28.75 15 22.594 28.75 15 28.75zm0-2.5c6.213 0 11.25-5.037 11.25-11.25S21.213 3.75 15 3.75 3.75 8.787 3.75 15 8.787 26.25 15 26.25zm6.25-12.5h-5v-5h-2.5v5h-5v2.5h5v5h2.5v-5h5v-2.5z" fill="#332974"/><path d="M16.25 13.75h-.5v.5h.5v-.5zm5 0h.5v-.5h-.5v.5zm-5-5h.5v-.5h-.5v.5zm-2.5 0v-.5h-.5v.5h.5zm0 5v.5h.5v-.5h-.5zm-5 0v-.5h-.5v.5h.5zm0 2.5h-.5v.5h.5v-.5zm5 0h.5v-.5h-.5v.5zm0 5h-.5v.5h.5v-.5zm2.5 0v.5h.5v-.5h-.5zm0-5v-.5h-.5v.5h.5zm5 0v.5h.5v-.5h-.5zM.75 15c0 7.87 6.38 14.25 14.25 14.25v-1C7.682 28.25 1.75 22.318 1.75 15h-1zM15 .75C7.13.75.75 7.13.75 15h1C1.75 7.682 7.682 1.75 15 1.75v-1zM29.25 15C29.25 7.13 22.87.75 15 .75v1c7.318 0 13.25 5.932 13.25 13.25h1zM15 29.25c7.87 0 14.25-6.38 14.25-14.25h-1c0 7.318-5.932 13.25-13.25 13.25v1zM25.75 15c0 5.937-4.813 10.75-10.75 10.75v1c6.49 0 11.75-5.26 11.75-11.75h-1zM15 4.25c5.937 0 10.75 4.813 10.75 10.75h1c0-6.49-5.26-11.75-11.75-11.75v1zM4.25 15C4.25 9.063 9.063 4.25 15 4.25v-1C8.51 3.25 3.25 8.51 3.25 15h1zM15 25.75C9.063 25.75 4.25 20.937 4.25 15h-1c0 6.49 5.26 11.75 11.75 11.75v-1zm1.25-11.5h5v-1h-5v1zm-.5-5.5v5h1v-5h-1zm-2 .5h2.5v-1h-2.5v1zm.5 4.5v-5h-1v5h1zm-5.5.5h5v-1h-5v1zm.5 2v-2.5h-1v2.5h1zm4.5-.5h-5v1h5v-1zm.5 5.5v-5h-1v5h1zm2-.5h-2.5v1h2.5v-1zm-.5-4.5v5h1v-5h-1zm5.5-.5h-5v1h5v-1zm-.5-2v2.5h1v-2.5h-1z" fill="#393184"/></svg>