<svg width="49" height="49" fill="none" xmlns="http://www.w3.org/2000/svg"><path fill-rule="evenodd" clip-rule="evenodd" d="M24.5 46.958c-12.403 0-22.458-10.055-22.458-22.458 0-12.403 10.055-22.458 22.458-22.458 12.404 0 22.458 10.055 22.458 22.458 0 12.403-10.054 22.458-22.458 22.458zm0-4.083c10.148 0 18.375-8.227 18.375-18.375S34.648 6.125 24.5 6.125 6.125 14.352 6.125 24.5 14.352 42.875 24.5 42.875zM21.86 14.89l-2.887 2.887 6.723 6.723-6.723 6.723 2.887 2.887 9.61-9.61-9.61-9.61z" fill="#fff"/></svg>