<svg width="17" height="32" fill="none" xmlns="http://www.w3.org/2000/svg"><path d="M2.412 31.97a2.494 2.494 0 01-1.54-.525 2.309 2.309 0 01-.594-.691 2.162 2.162 0 01-.17-1.74c.095-.286.247-.552.45-.782l10.789-12.214L.943 3.781a2.24 2.24 0 01-.44-.79A2.162 2.162 0 01.7 1.253c.153-.264.358-.496.606-.684a2.45 2.45 0 01.857-.46A2.538 2.538 0 014.08.295c.29.154.541.364.74.615l11.632 13.672c.354.408.548.92.548 1.447 0 .528-.194 1.04-.548 1.447L4.412 31.15a2.4 2.4 0 01-.897.636 2.529 2.529 0 01-1.103.184z" fill="#000"/></svg>