<svg width="35" height="35" fill="none" xmlns="http://www.w3.org/2000/svg"><path d="M14.766 19.688a1.641 1.641 0 11-3.283 0 1.641 1.641 0 013.283 0zm7.109-1.641a1.64 1.64 0 100 3.28 1.64 1.64 0 000-3.28zm11.267 7.456c-2.266 1.97-5.313 3.463-8.812 4.318a2.173 2.173 0 01-2.467-1.149l-1.297-2.595a27.238 27.238 0 01-6.132 0l-1.297 2.595a2.174 2.174 0 01-2.467 1.149c-3.499-.855-6.546-2.348-8.812-4.318a2.2 2.2 0 01-.668-2.287L5.835 7.733a2.182 2.182 0 011.263-1.395 25.162 25.162 0 014.24-1.313 2.187 2.187 0 012.545 1.445l.808 2.426a27.208 27.208 0 015.618 0l.809-2.426a2.187 2.187 0 012.544-1.445c1.45.312 2.868.751 4.24 1.313a2.18 2.18 0 011.263 1.395l4.645 15.483a2.2 2.2 0 01-.668 2.287zm-1.435-1.651L27.07 8.362a22.913 22.913 0 00-3.873-1.2l-.688 2.057a22.3 22.3 0 012.656.678 1.093 1.093 0 11-.675 2.081c-2.097-.68-4.514-1.04-6.99-1.04-2.475 0-4.893.36-6.99 1.04a1.094 1.094 0 01-.675-2.08 22.33 22.33 0 012.658-.68l-.686-2.056A22.91 22.91 0 007.932 8.36L3.285 23.845c2.013 1.749 4.743 3.078 7.904 3.851l.983-1.979c-.79-.162-1.57-.367-2.337-.614a1.094 1.094 0 01.675-2.08c2.097.68 4.514 1.04 6.99 1.04s4.893-.36 6.99-1.04a1.094 1.094 0 11.675 2.08c-.766.247-1.545.452-2.334.614l.989 1.977c3.152-.77 5.882-2.1 7.887-3.842z" fill="#fff"/></svg>