<svg width="91" height="91" fill="none" xmlns="http://www.w3.org/2000/svg"><path d="M73.084 26.447L53.178 6.54c-.569-.57-1.137-.854-1.99-.854H22.75c-3.128 0-5.688 2.56-5.688 5.688v68.25c0 3.128 2.56 5.688 5.688 5.688h45.5c3.128 0 5.688-2.56 5.688-5.688V28.437c0-.853-.285-1.421-.854-1.99zM51.187 12.513l15.925 15.925H51.188V12.512zM68.25 79.624h-45.5v-68.25H45.5v17.063c0 3.128 2.56 5.687 5.688 5.687H68.25v45.5z" fill="#393184"/><path d="M25.651 40.309h32.98v3.664h-32.98v-3.664zm5.497 5.496h32.98v3.665h-32.98v-3.665zm0 5.497h32.98v3.665h-32.98v-3.665zm0 5.497H50.08v3.664H31.148V56.8zm0 5.496H50.08v3.665H31.148v-3.665zm0 5.497H50.08v3.664H31.148v-3.664z" fill="#393184"/></svg>