<svg width="180" height="181" fill="none" xmlns="http://www.w3.org/2000/svg"><g clip-path="url(#clip0_2_2822)"><path opacity=".7" d="M154.201 55.65c-9.243-13.874-26.814-22.113-43.8-20.527-16.987 1.585-32.62 12.88-38.972 28.219-3.265 7.817-4.297 16.6-9.134 23.599-4.979 7.18-13.266 11.463-21.405 15.041-8.138 3.579-15.97 4.863-22.388 10.868-6.417 6.005-10.884 17.678-7.106 25.503 3.857 7.953 13.604 11.133 20.638 16.687 7.034 5.555 11.517 13.726 18.704 19.095 6.639 4.959 15.197 7.145 23.585 7.128 8.389-.016 16.652-2.109 24.489-5.003 24.318-8.971 47.227-25.667 56.925-49.037 17.954-43.26-1.536-71.573-1.536-71.573z" fill="#393184"/><path d="M154.201 55.65c-9.243-13.874-26.814-22.113-43.8-20.527-16.987 1.585-32.62 12.88-38.972 28.219-3.265 7.817-4.297 16.6-9.134 23.599-4.979 7.18-13.266 11.463-21.405 15.041-8.138 3.579-15.97 4.863-22.388 10.868-6.417 6.005-10.884 17.678-7.106 25.503 3.857 7.953 13.604 11.133 20.638 16.687 7.034 5.555 11.517 13.726 18.704 19.095 6.639 4.959 15.197 7.145 23.585 7.128 8.389-.016 16.652-2.109 24.489-5.003 24.318-8.971 47.227-25.667 56.925-49.037 17.954-43.26-1.536-71.573-1.536-71.573z" fill="#393184"/><path d="M16.862 141.464a8.012 8.012 0 017.262 1.026 7.981 7.981 0 013.368 6.505v.048a2.806 2.806 0 014.172-.269 6.272 6.272 0 012.178-4.079 6.291 6.291 0 018.597.436 6.273 6.273 0 011.753 4.279 1.893 1.893 0 012.959 1.235H2.7a5.593 5.593 0 013.266-5.104 5.613 5.613 0 016.006.85 8.005 8.005 0 011.95-3.075" stroke="#263238" stroke-linecap="round" stroke-linejoin="round"/><path d="M36.094 67.576h44.433a5.592 5.592 0 00-3.265-5.104 5.615 5.615 0 00-6.006.85 7.976 7.976 0 00-3.47-4.249 7.995 7.995 0 00-10.17 1.705 7.967 7.967 0 00-1.891 5.148v.048a2.8 2.8 0 00-3.185-.898c-.37.138-.706.352-.987.629a6.272 6.272 0 00-2.179-4.08 6.29 6.29 0 00-8.597.437 6.27 6.27 0 00-1.753 4.279 1.844 1.844 0 00-1.088-.347 1.892 1.892 0 00-1.842 1.582zm71.248-38.166h44.441a5.602 5.602 0 00-1.646-3.961 5.619 5.619 0 00-3.969-1.641 5.558 5.558 0 00-3.628 1.352 7.97 7.97 0 00-3.465-4.281 7.991 7.991 0 00-10.204 1.715 7.967 7.967 0 00-1.87 5.178v.049a2.805 2.805 0 00-4.172-.27 6.275 6.275 0 00-2.176-4.077 6.29 6.29 0 00-8.594.428 6.268 6.268 0 00-1.758 4.273 1.817 1.817 0 00-1.089-.346 1.891 1.891 0 00-1.87 1.582v0z" stroke="#263238" stroke-miterlimit="10"/><path d="M157.689 77.824v103.572H48.554V80.98c0-.837.333-1.64.925-2.231a3.163 3.163 0 012.235-.925h105.975z" fill="#7E57C2" stroke="#263238" stroke-linecap="round" stroke-linejoin="round"/><path d="M157.689 77.824v103.572H48.554V80.98c0-.837.333-1.64.925-2.231a3.163 3.163 0 012.235-.925h105.975z" fill="#BFBFBF" stroke="#263238" stroke-linecap="round" stroke-linejoin="round"/><path d="M159.007 77.667H46.937v7.652h112.07v-7.652z" fill="#fff" stroke="#263238" stroke-linecap="round" stroke-linejoin="round"/><path d="M120.802 80.344h2.765-2.765z" fill="#fff"/><path d="M120.802 80.344h2.765" stroke="#263238" stroke-miterlimit="10"/><path d="M118.435 80.344h-1.983a.05.05 0 010 .024l1.983-.024zm-3.463 0H80.269c11.509.14 23.207.153 34.707.04 0-.012-.004-.028-.004-.04zm36.102 69.44h6.207v-2.399h-6.207v2.399zm-7.204 0h6.208v-2.399h-6.208v2.399zm3.536-3.063h6.207v-2.399h-6.207v2.399zm-76.601-5.624h-6.207v2.399h6.207v-2.399zm7.207 0h-6.207v2.399h6.207v-2.399zm-3.535 3.068H68.27v2.398h6.208v-2.398z" fill="#fff" stroke="#263238" stroke-miterlimit="10"/><path d="M84.7 153.213H58.426v28.183H84.7v-28.183z" fill="#fff" stroke="#263238" stroke-linecap="round" stroke-linejoin="round"/><path d="M82.99 154.791H60.135v26.606H82.99v-26.606z" fill="#263238" stroke="#999" stroke-linecap="round" stroke-linejoin="round"/><path d="M67.697 156.373h-6.123v13.021h6.123v-13.021zm7.014 0h-6.123v13.021h6.123v-13.021zm7.014 0h-6.123v13.021h6.123v-13.021zm.02 14.815H61.594v10.208h20.15v-10.208z" fill="#fff" stroke="#263238" stroke-linecap="round" stroke-linejoin="round"/><path d="M72.437 170.967h-1.185v10.429h1.185v-10.429z" fill="#263238"/><path d="M61.243 181.228h21.074" stroke="#263238" stroke-miterlimit="10"/><path d="M117.008 153.213H90.734v28.183h26.274v-28.183z" fill="#fff" stroke="#263238" stroke-linecap="round" stroke-linejoin="round"/><path d="M115.299 154.791H92.443v26.606H115.3v-26.606z" fill="#263238" stroke="#999" stroke-linecap="round" stroke-linejoin="round"/><path d="M100.006 156.373h-6.123v13.021h6.123v-13.021zm7.014 0h-6.124v13.021h6.124v-13.021zm7.013 0h-6.123v13.021h6.123v-13.021zm.02 14.815h-20.15v10.208h20.15v-10.208z" fill="#fff" stroke="#263238" stroke-linecap="round" stroke-linejoin="round"/><path d="M104.75 170.967h-1.189v10.429h1.189v-10.429z" fill="#263238"/><path d="M93.552 181.228h21.074" stroke="#263238" stroke-miterlimit="10"/><path d="M149.317 153.213h-26.274v28.183h26.274v-28.183z" fill="#fff" stroke="#263238" stroke-linecap="round" stroke-linejoin="round"/><path d="M147.608 154.791h-22.856v26.606h22.856v-26.606z" fill="#263238" stroke="#999" stroke-linecap="round" stroke-linejoin="round"/><path d="M132.313 156.373h-6.123v13.021h6.123v-13.021zm7.015 0h-6.123v13.021h6.123v-13.021zm7.014 0h-6.123v13.021h6.123v-13.021zm.024 14.815h-20.151v10.208h20.151v-10.208z" fill="#fff" stroke="#263238" stroke-linecap="round" stroke-linejoin="round"/><path d="M137.058 170.967h-1.185v10.429h1.185v-10.429z" fill="#263238"/><path d="M125.86 181.228h21.074" stroke="#263238" stroke-miterlimit="10"/><path d="M84.296 98.098H58.022v41.031h26.274v-41.03z" fill="#fff" stroke="#263238" stroke-linecap="round" stroke-linejoin="round"/><path d="M82.587 99.676H59.731v37.481h22.856V99.676z" fill="#263238" stroke="#999" stroke-linecap="round" stroke-linejoin="round"/><path d="M67.294 101.253h-6.123v13.021h6.123v-13.021zm7.014 0h-6.123v13.021h6.123v-13.021zm7.014 0H75.2v13.021h6.123v-13.021zm.02 14.821h-20.15v19.332h20.15v-19.332z" fill="#fff" stroke="#263238" stroke-linecap="round" stroke-linejoin="round"/><path d="M72.035 115.852H70.85v21.043h1.185v-21.043z" fill="#263238"/><path d="M60.84 126.112h21.075" stroke="#263238" stroke-miterlimit="10"/><path d="M85.115 137.27h-27.95v1.67h27.95v-1.67z" fill="#999" stroke="#263238" stroke-linecap="round" stroke-linejoin="round"/><path d="M116.605 98.098H90.331v41.031h26.274v-41.03z" fill="#fff" stroke="#263238" stroke-linecap="round" stroke-linejoin="round"/><path d="M114.896 99.676H92.04v37.481h22.856V99.676z" fill="#263238" stroke="#999" stroke-linecap="round" stroke-linejoin="round"/><path d="M99.603 101.253H93.48v13.021h6.123v-13.021zm7.013 0h-6.123v13.021h6.123v-13.021zm7.014 0h-6.123v13.021h6.123v-13.021zm.02 14.821H93.499v19.332h20.151v-19.332z" fill="#fff" stroke="#263238" stroke-linecap="round" stroke-linejoin="round"/><path d="M104.342 115.852h-1.185v21.043h1.185v-21.043z" fill="#263238"/><path d="M93.148 126.112h21.074" stroke="#263238" stroke-miterlimit="10"/><path d="M117.424 137.27H89.473v1.67h27.951v-1.67z" fill="#999" stroke="#263238" stroke-linecap="round" stroke-linejoin="round"/><path d="M148.914 98.098H122.64v41.031h26.274v-41.03z" fill="#fff" stroke="#263238" stroke-linecap="round" stroke-linejoin="round"/><path d="M147.204 99.676h-22.855v37.481h22.855V99.676z" fill="#263238" stroke="#999" stroke-linecap="round" stroke-linejoin="round"/><path d="M131.911 101.253h-6.123v13.021h6.123v-13.021zm7.014 0h-6.123v13.021h6.123v-13.021zm7.013 0h-6.123v13.021h6.123v-13.021zm.024 14.821h-20.15v19.332h20.15v-19.332z" fill="#fff" stroke="#263238" stroke-linecap="round" stroke-linejoin="round"/><path d="M136.655 115.852h-1.185v21.043h1.185v-21.043z" fill="#263238"/><path d="M125.457 126.112h21.074" stroke="#263238" stroke-miterlimit="10"/><path d="M149.732 137.27h-27.951v1.67h27.951v-1.67z" fill="#999" stroke="#263238" stroke-linecap="round" stroke-linejoin="round"/><path d="M119.08 89.505h-6.208v2.399h6.208v-2.4zm7.208 0h-6.208v2.399h6.208v-2.4zm-3.535 3.063h-6.208v2.399h6.208v-2.4z" fill="#fff" stroke="#263238" stroke-miterlimit="10"/><path d="M35.933 181.396h125.436m-130.032 0h2.152m-31.752 0H29.18m-34.517 0h4.922" stroke="#263238" stroke-linecap="round" stroke-linejoin="round"/></g><defs><clipPath id="clip0_2_2822"><path fill="#fff" d="M0 0h180v181H0z"/></clipPath></defs></svg>