<svg width="35" height="35" fill="none" xmlns="http://www.w3.org/2000/svg"><path fill-rule="evenodd" clip-rule="evenodd" d="M23.333 2.917H11.667a8.75 8.75 0 00-8.75 8.75v11.666a8.75 8.75 0 008.75 8.75h11.666a8.75 8.75 0 008.75-8.75V11.667a8.75 8.75 0 00-8.75-8.75zm-17.5 8.75a5.833 5.833 0 015.834-5.834h11.666a5.833 5.833 0 015.834 5.833v11.667a5.833 5.833 0 01-5.834 5.834H11.667a5.833 5.833 0 01-5.834-5.834V11.667zM17.5 24.79a7.292 7.292 0 110-14.583 7.292 7.292 0 010 14.583zm0-2.916a4.375 4.375 0 100-8.75 4.375 4.375 0 000 8.75zm8.75-11.667a1.458 1.458 0 11-2.917 0 1.458 1.458 0 012.917 0z" fill="#fff"/></svg>