<svg width="35" height="35" fill="none" xmlns="http://www.w3.org/2000/svg"><path fill-rule="evenodd" clip-rule="evenodd" d="M30.8 6.574l2.063.241-.928 1.859-1.358 2.72c-.054.191-.148.36-.288.579-.058.091-.258.382-.267.396a3.062 3.062 0 00-.12.191v3.484c0 8.913-8.626 14.577-16.772 14.577-1.667 0-2.933-.08-4.383-.396-2.387-.521-4.163-1.556-4.976-3.366l-.836-1.862 2.033-.187c1.84-.17 3.435-.52 4.66-.99-3.363-.54-5.248-2.017-5.248-4.79v-1.46h1.46c.32 0 .609-.026.867-.074-2.523-1.508-3.787-3.93-3.787-7.287l-.002-.296c-.01-1.692.082-2.596.545-3.75a6.684 6.684 0 011.304-2.052l1.1-1.196 1.07 1.223c3.526 4.03 7.011 6.474 10.57 6.77.015-3.718 2.825-6.532 6.563-6.532 1.742 0 3.323.661 4.565 1.854.68.14 1.401.254 2.165.343zm-3.225 2.412l-.447-.101-.309-.339c-.746-.82-1.683-1.252-2.75-1.252-2.134 0-3.646 1.52-3.646 3.646 0 .347-.01.565-.052.852-.173 1.145-.815 2.064-2.136 2.064-4.372 0-8.316-2.342-12.163-6.342-.198.602-.245 1.222-.238 2.384l.001.312c0 2.987 1.21 4.62 4.075 5.531l1.017.323v1.067c0 1.294-1.226 2.511-3.019 3.057.822.623 2.503.96 5.223.96h1.458v1.458c0 2.09-2.4 3.726-6.027 4.58 1.182.362 2.757.518 4.568.518 6.73 0 13.856-4.679 13.856-11.66v-3.646c0-.428.124-.8.33-1.187.081-.151.17-.295.28-.46l.157-.232.116-.232.562-1.123a25.299 25.299 0 01-.856-.178z" fill="#fff"/></svg>