<svg width="32" height="32" fill="none" xmlns="http://www.w3.org/2000/svg"><path d="M16 .64C7.516.64.64 7.516.64 16c0 8.483 6.876 15.36 15.36 15.36 8.483 0 15.36-6.877 15.36-15.36C31.36 7.516 24.483.64 16 .64zm5.907 17.33s1.358 1.34 1.693 1.962c.01.013.014.026.017.032.136.23.168.407.101.54-.112.22-.496.33-.627.339h-2.4c-.166 0-.515-.043-.938-.335-.325-.227-.645-.6-.957-.963-.465-.54-.868-1.008-1.275-1.008a.49.49 0 00-.152.024c-.307.1-.7.538-.7 1.706 0 .365-.289.574-.492.574h-1.099c-.374 0-2.325-.13-4.053-1.953-2.115-2.232-4.019-6.71-4.035-6.75-.12-.29.128-.446.398-.446h2.424c.324 0 .43.197.503.372.086.203.403 1.01.923 1.92.843 1.481 1.36 2.083 1.774 2.083a.472.472 0 00.223-.058c.54-.3.44-2.229.416-2.629 0-.075-.002-.862-.279-1.24-.198-.273-.536-.377-.74-.416a.882.882 0 01.318-.27c.371-.186 1.04-.213 1.704-.213h.37c.72.01.905.056 1.166.122.528.126.54.467.493 1.633a24.61 24.61 0 00-.029 1.148c0 .096-.005.198-.005.307-.016.593-.035 1.267.384 1.544a.345.345 0 00.183.053c.145 0 .584 0 1.77-2.037a15.52 15.52 0 00.953-2.039c.024-.041.094-.17.177-.219a.426.426 0 01.199-.046h2.85c.31 0 .523.046.563.166.07.19-.013.771-1.314 2.533l-.58.766c-1.18 1.546-1.18 1.624.073 2.797z" fill="#fff"/></svg>