<svg width="35" height="35" fill="none" xmlns="http://www.w3.org/2000/svg"><path fill-rule="evenodd" clip-rule="evenodd" d="M32.12 26.437c.996-1.708 1.422-4.461 1.422-8.94 0-4.463-.422-7.2-1.43-8.954-1.009-1.82-2.206-2.399-4.581-2.538-1.622-.11-5.653-.171-10.027-.171-4.384 0-8.417.061-10.05.172-2.363.138-3.56.718-4.578 2.544-.993 1.747-1.418 4.498-1.418 8.962 0 4.44.427 7.204 1.426 8.946C3.89 28.26 5.068 28.833 7.45 29c1.712.1 5.973.167 10.054.167 4.071 0 8.33-.067 10.027-.166 2.404-.168 3.582-.742 4.588-2.564zm-4.773-17.52c1.486.086 1.762.22 2.233 1.072.686 1.188 1.045 3.512 1.045 7.523 0 3.982-.361 6.318-1.042 7.485-.473.856-.746.989-2.24 1.093-1.605.094-5.823.16-9.84.16-4.025 0-8.245-.066-9.866-.16-1.474-.104-1.752-.24-2.214-1.068-.685-1.195-1.048-3.545-1.048-7.526 0-3.979.36-6.316 1.042-7.516.47-.842.75-.977 2.22-1.063 1.558-.105 5.552-.167 9.867-.167 4.305 0 8.298.062 9.843.166zm-12.764 4.208l7.292 4.375-7.292 4.375v-8.75z" fill="#fff"/></svg>