<svg width="1440" height="634" fill="none" xmlns="http://www.w3.org/2000/svg"><path fill="#393184" d="M0 0h1440v634H0z"/><path fill="url(#paint0_radial_2_1226)" fill-opacity=".24" d="M0 0h1440v634H0z"/><path d="M1288.2 168.03s-35.22-70.504-112.99-80.948c-77.77-10.444-132.06 40.474-189.296 66.584-29.96 13.678-64.19 8.4-96.012 14.994-101.724 21.14-140.056 153.748-97.678 229.166 36.68 65.282 101.248 99.218 199.57 107.058 98.326 7.84 167.276 16.968 255.316-46.998 88.05-63.966 82.18-197.148 41.09-289.856z" fill="#7E57C2"/><path opacity=".7" d="M1288.2 168.03s-35.22-70.504-112.99-80.948c-77.77-10.444-132.06 40.474-189.296 66.584-29.96 13.678-64.19 8.4-96.012 14.994-101.724 21.14-140.056 153.748-97.678 229.166 36.68 65.282 101.248 99.218 199.57 107.058 98.326 7.84 167.276 16.968 255.316-46.998 88.05-63.966 82.18-197.148 41.09-289.856z" fill="#fff"/><path d="M1302.8 194.14H933.414v158.466H1302.8V194.14z" fill="#fff" stroke="#263238" stroke-linecap="round" stroke-linejoin="round"/><path d="M1312.86 189.674H923.376v6.692h389.484v-6.692z" fill="#fff" stroke="#263238" stroke-linecap="round" stroke-linejoin="round"/><path d="M833.385 352.2h-72.114v60.578h72.114V352.2zm43.763 68.278h-72.114v3.85h72.114v-3.85z" fill="#263238" stroke="#263238" stroke-linecap="round" stroke-linejoin="round"/><path d="M802.15 395.95h-13.944v27.888h13.944V395.95zm143.276 33.88H753.108v127.946h192.318V429.83z" fill="#707070" stroke="#263238" stroke-linecap="round" stroke-linejoin="round"/><path d="M756.258 430.754h-6.482V560.8h6.482V430.754zm191.787 0h-6.483V560.8h6.483V430.754z" fill="#707070" stroke="#263238" stroke-linecap="round" stroke-linejoin="round"/><path d="M957.158 422.998h-212.8v12.222h212.8v-12.222z" fill="#707070" stroke="#263238" stroke-linecap="round" stroke-linejoin="round"/><path d="M1053.3 304.684s-7.73 4.802-10.24 11.074c-2.5 6.272-12.95 38.682-15.66 42.868-2.72 4.186-2.72 10.654.42 14.21 3.13 3.556 8.4 5.838 12.74 1.666 4.34-4.172 5.6-12.53 9.8-22.4 4.2-9.87 7.74-37.646 9.8-43.288a44.67 44.67 0 002.5-10.444l-9.36 6.314z" fill="#fff" stroke="#263238" stroke-linecap="round" stroke-linejoin="round"/><path d="M1116.39 386.192s1.25 16.618.62 25.074c-.63 8.456-6.26 61.796-6.26 61.796l-8.15 71.96h-12.53l-9.1-106.12-12.2 105.812h-12.86s-7.51-66.64-9.71-82.6a150.842 150.842 0 01-.94-30.114c0-.938-2.8-22.246-2.8-28.196.04-4.054.32-8.103.84-12.124l-.52-2.296s23.19 6.272 39.2 2.506c16.02-3.766 31.64-8.764 31.64-8.764l2.77 3.066z" fill="#263238" stroke="#263238" stroke-linecap="round" stroke-linejoin="round"/><path d="M1102.6 545.022l3.76 12.852c.13.203.21.431.25.669.04.238.03.482-.02.716-.06.235-.17.455-.31.648a1.85 1.85 0 01-.54.473c-1.57.938-19.12 0-19.12 0a2.438 2.438 0 01-1.25-2.8c.31-2.198 4.7-12.6 4.7-12.6l12.53.042zm-33.83-.308l1.13 11.718c.07.729-.13 1.459-.55 2.058v0c-.28.391-.65.709-1.08.928-.42.219-.9.333-1.38.332h-24.29c-2.46 0-7.22-.084-6.76-2.506.31-1.568 20.05-12.488 20.05-12.488l12.88-.042z" stroke="#263238" stroke-linecap="round" stroke-linejoin="round"/><path d="M1080.97 438.902l-3.12-13.216-11.28-7.84" stroke="#6B6B6B" stroke-linecap="round" stroke-linejoin="round"/><path d="M1048.91 320.77v24.43c0 1.4-7.51 33.6-8.14 36.764-.63 3.164 0 6.062 2.5 9.604 2.51 3.542 11.92 7.112 32.38 8.778 20.47 1.666 35.73-5.852 39.9-10.654 4.18-4.802-.63-14-2.08-26.95-1.46-12.95-1.89-53.942-7.73-56.602-5.84-2.66-24.65-11.69-24.65-11.69s-10.66 0-17.76 3.136a36.432 36.432 0 00-12.12 9.394" fill="#fff"/><path d="M1048.91 320.77v24.43c0 1.4-7.51 33.6-8.14 36.764-.63 3.164 0 6.062 2.5 9.604 2.51 3.542 11.92 7.112 32.38 8.778 20.47 1.666 35.73-5.852 39.9-10.654 4.18-4.802-.63-14-2.08-26.95-1.46-12.95-1.89-53.942-7.73-56.602-5.84-2.66-24.65-11.69-24.65-11.69s-10.66 0-17.76 3.136a36.432 36.432 0 00-12.12 9.394" stroke="#263238" stroke-linecap="round" stroke-linejoin="round"/><path d="M1079.83 290.264a5.581 5.581 0 013.33.773c1.01.6 1.8 1.5 2.27 2.573 1.47 3.766-3.14 26.53-3.14 26.53s-10.23-7.308-12.74-7.308-14 7.308-14 7.308 3.77-15.666 7.11-21.728c3.35-6.062 12.53-9.394 16.3-8.4l.87.252z" fill="#fff" stroke="#263238" stroke-linecap="round" stroke-linejoin="round"/><path d="M1080.67 288.178s.84 2.086-2.93 12.124-5.6 18.592-7.94 16.282c-2.34-2.31-5.01-14.406-5.01-14.406s12.11-8.778 15.88-14z" fill="#fff" stroke="#263238" stroke-linecap="round" stroke-linejoin="round"/><path d="M1047.07 271.994a169.1 169.1 0 004.08 17.206c2.03 6.104 4.65 15.134 11.64 17.164 6.98 2.03 9.03-3.192 11.94-5.6 2.91-2.408 7.56-10.192 7.56-14s-.29-12.222-1.75-15.134c-1.46-2.912-4.07-5.824-11.63-7.28-7.56-1.456-14.56-.224-21.84 7.644z" fill="#fff" stroke="#263238" stroke-linecap="round" stroke-linejoin="round"/><path d="M1079.97 279.848s-4.37 1.75-5.53-.868c-1.17-2.618-3.21-6.412-3.21-6.412s-9.03 3.794-14.55 4.032c-5.51.238-11.64-3.192-12.51-7-.87-3.808 2.32-12.222 9.6-16.8 7.28-4.578 22.4-6.706 27.06.574a31.862 31.862 0 014.96 18.634c0 4.942-.29 8.4-.29 8.4a6.785 6.785 0 00-2.71-.879 6.688 6.688 0 00-2.82.319z" fill="#263238" stroke="#263238" stroke-linecap="round" stroke-linejoin="round"/><path d="M1078.22 281.892s2.61-6.706 5.23-5.824c2.62.882 2.91 6.118 1.4 9.31-1.51 3.192-5.23 4.368-6.1 3.794" fill="#fff"/><path d="M1078.22 281.892s2.61-6.706 5.23-5.824c2.62.882 2.91 6.118 1.4 9.31-1.51 3.192-5.23 4.368-6.1 3.794m-20.11-3.738s10.53-.742 12.76-.448c2.22.294 1.92 2.8 1.33 5.6-.59 2.8-4.01 4.452-8.01 3.71s-4.9-4.2-5.6-4.746c-.7-.546-1.04-1.19-1.92-.742-.88.448-.74 3.556-1.78 4.886-1.03 1.33-3.86 2.38-7 .742-3.13-1.638-2.96-6.37-2.96-8.008 0-1.638 1.62-1.484 2.36-1.4.74.084 10.82.406 10.82.406zm14.24.154l6.53-6.678m-33.23 6.076l2.52-3.108" stroke="#263238" stroke-linecap="round" stroke-linejoin="round"/><path d="M1057.01 290.474s-.59 1.778-.9 3.262c-.31 1.484.9 4.452 2.67 4.2 1.78-.252 2.23-1.19 2.23-1.19m8.19-13.384c-2-.621-4.16-.517-6.09.294m-7.59.294a3.89 3.89 0 00-2.35-.885c-.85-.028-1.7.229-2.39.731" stroke="#263238" stroke-linecap="round" stroke-linejoin="round"/><path d="M1099.68 303.634s8.99 2.716 12.95 6.062c3.96 3.346 10.36 29.624 12.23 42.154 1.88 12.53 4.81 23.366 2.3 24.836-2.51 1.47-41.69-3.654-41.69-3.654l-1.25-6.048 25.54-5.32s-14.27-28-14.67-35.672c-.38-4.111.19-8.254 1.66-12.11" fill="#fff"/><path d="M1099.68 303.634s8.99 2.716 12.95 6.062c3.96 3.346 10.36 29.624 12.23 42.154 1.88 12.53 4.81 23.366 2.3 24.836-2.51 1.47-41.69-3.654-41.69-3.654l-1.25-6.048 25.54-5.32s-14.27-28-14.67-35.672c-.38-4.111.19-8.254 1.66-12.11" stroke="#263238" stroke-linecap="round" stroke-linejoin="round"/><path d="M1057.9 352.564l11.06 27.16-18.79 6.888-11.7-26.32 19.43-7.728z" fill="#7E57C2" stroke="#263238" stroke-linecap="round" stroke-linejoin="round"/><path d="M1038.47 360.292l-13.37-9.814 11.9 27.58 13.17 8.554-11.7-26.32z" fill="#7E57C2" stroke="#263238" stroke-linecap="round" stroke-linejoin="round"/><path d="M1084.22 366.984s-15.05-4.2-16.71-5.432c-1.67-1.232-15.67 4.382-16.51 4.382-.84 0-.63 1.05.21 1.47.84.42 10.02-2.1 10.02-2.1s-8.76 4.606-8.76 5.6c.01.322.09.639.23.929.14.289.35.545.6.751 0 0 .21 1.876 1.26 2.296 1.05.42 11.69-1.68 11.69-1.68s-8.4 3.136-7.31 3.766a3.172 3.172 0 003.34 0c1.25-.63 8.78-2.926 8.78-2.926s5.6 1.666 8.77.84c1.9-.517 3.77-1.149 5.6-1.89l-1.21-6.006z" fill="#fff" stroke="#263238" stroke-linecap="round" stroke-linejoin="round"/><path d="M1053.3 372.626l10.44-2.926" stroke="#263238" stroke-linecap="round" stroke-linejoin="round"/><path d="M1027.4 358.626s7.09 5.222 8.4 6.888c.36.469.62 1.009.77 1.585.14.576.16 1.175.07 1.761l-4.61-1.876s5.85 5.222 6.06 6.048c.21.826 2.3 4.396-.21 3.976-2.5-.42-10.02-4.382-11.49-6.482-1.47-2.1-1.88-11.9-1.88-11.9s.59-2.086 2.89 0z" fill="#fff" stroke="#263238" stroke-linecap="round" stroke-linejoin="round"/><path d="M1038.05 374.292l-8.36-5.012m9.2 6.888s-7.52-3.332-8.99-4.592m2.09-4.592l-2.51-1.68" stroke="#263238" stroke-linecap="round" stroke-linejoin="round"/><path d="M1083.55 442.444h-5.82V560.8h5.82V442.444zm265.86 0h-5.82V560.8h5.82V442.444z" fill="#fff" stroke="#263238" stroke-linecap="round" stroke-linejoin="round"/><path d="M1357.6 435.458h-284.75v10.99h284.75v-10.99zm-572.558 6.986h-5.824V560.8h5.824V442.444zm265.848 0h-5.83V560.8h5.83V442.444z" fill="#fff" stroke="#263238" stroke-linecap="round" stroke-linejoin="round"/><path d="M1059.09 435.458H774.346v10.99h284.744v-10.99z" fill="#fff" stroke="#263238" stroke-linecap="round" stroke-linejoin="round"/><path d="M1263.52 463.192l13.38 85.75 7.17.448 1.7-84.098-22.25-2.1z" fill="#707070" stroke="#263238" stroke-linecap="round" stroke-linejoin="round"/><path d="M1276.9 548.942v9.548c.01.381.15.748.41 1.028s.61.453.99.484l5.25.294a1.5 1.5 0 001.19-.478c.15-.161.27-.354.33-.564.07-.21.09-.433.07-.652l-1.07-9.212-7.17-.448z" fill="#fff" stroke="#263238" stroke-linecap="round" stroke-linejoin="round"/><path d="M1315.81 463.402l-14.85 85.456-7.19.28-.23-84.112 22.27-1.624z" fill="#707070" stroke="#263238" stroke-linecap="round" stroke-linejoin="round"/><path d="M1300.96 548.858l-.17 9.534c-.01.389-.17.76-.44 1.037a1.5 1.5 0 01-1.03.447l-5.27.182c-.22.006-.43-.036-.64-.123-.2-.087-.38-.217-.53-.38a1.706 1.706 0 01-.32-.569c-.06-.21-.08-.432-.05-.65l1.26-9.198 7.19-.28z" fill="#fff" stroke="#263238" stroke-linecap="round" stroke-linejoin="round"/><path d="M1259.29 380.326s-22.4 43.4-23.01 47.096c-.62 3.696 3.05 9.17 9.46 8.554 6.41-.616 23.11-.91 23.11-.91l.31-5.81-19.25-2.436 11.61-9.17-2.23-37.324z" fill="#7E57C2" stroke="#263238" stroke-linecap="round" stroke-linejoin="round"/><path d="M1249.91 426.82l-2.34 4.578" stroke="#263238" stroke-linecap="round" stroke-linejoin="round"/><path d="M1319.28 381.264s22.82 42.49 23.44 46.2c.61 3.71-3.05 9.17-9.47 8.554-6.41-.616-21.4-.91-21.4-.91l-.31-5.908 10.42-2.436-7.3-9.282 4.62-36.218z" fill="#7E57C2" stroke="#263238" stroke-linecap="round" stroke-linejoin="round"/><path d="M1321.96 426.82l9.46 4.578" stroke="#263238" stroke-linecap="round" stroke-linejoin="round"/><path d="M1280.6 368.888l-14.7 7.784c-7.35 3.892-6.16 1.708-6.59 3.654-.44 1.946 2.47 69.398 2.47 69.398s5.6 5.46 20.33 6.916c22.04 2.156 31.54-4.76 31.54-4.76s5.6-68.236 5.6-70.616c0-2.38-9.1-7-14.92-9.8-5.82-2.8-12.29-5.166-23.73-2.576z" fill="#7E57C2" stroke="#263238" stroke-linecap="round" stroke-linejoin="round"/><path d="M1288.44 322.8s-9.53 4.2-12.6 11.046c-3.07 6.846 1.9 22.862.76 27.048-1.15 4.186-6.47 3.808-6.47 3.808s2.28 12.964 15.23 14.49c12.95 1.526 18.68-.392 24.01-6.104 5.33-5.712 4.2-5.712 4.2-5.712s-2.28 0-3.43-6.482c-1.15-6.482.38-24.766-5.33-32.76-5.72-7.994-14.41-7.686-16.37-5.334z" fill="#263238" stroke="#263238" stroke-linecap="round" stroke-linejoin="round"/><path d="M1261.77 449.724s-1.93 21.602-1.29 24.416c.65 2.814 7.35 7.35 21 7.784 13.65.434 30.69 1.078 34.81-3.892 4.11-4.97-2.61-26.152-2.61-26.152s-36.34 3.024-51.91-2.156z" fill="#707070" stroke="#263238" stroke-linecap="round" stroke-linejoin="round"/><path d="M1289.13 368.482s.32-2.24 7-.322" stroke="#263238" stroke-linecap="round" stroke-linejoin="round"/><path d="M1261.46 559.498c-.2-.014-.39-.068-.57-.158-.18-.09-.34-.215-.47-.368a1.49 1.49 0 01-.29-.52 1.692 1.692 0 01-.07-.592l4.44-81.718 5.1.406-6.53 81.564c-.03.396-.22.764-.52 1.023-.3.26-.69.39-1.09.363zm54.95 0c.4-.032.78-.223 1.04-.53.26-.307.39-.705.36-1.108l-4.44-81.718-5.09.406 6.51 81.564c.03.398.22.765.53 1.024.3.259.69.389 1.09.362z" fill="#263238" stroke="#263238" stroke-linecap="round" stroke-linejoin="round"/><path d="M1321.63 411.812a246.998 246.998 0 01-34.42 2.534 239.451 239.451 0 01-32.2-2.534 2.607 2.607 0 00-2.25.726c-.29.289-.51.643-.63 1.033-.13.389-.17.804-.1 1.209 1.65 10.332 6.34 40.054 6.34 45.738 0 6.916-2.38 13.412-2.38 16.436 0 3.024 1.3 5.404 3.46 6.258 1 .406 12.33.434 27.65.35 17.72.084 29.06 0 30.05-.35 2.16-.854 3.46-3.234 3.46-6.258s-2.38-9.52-2.38-16.436c0-5.684 4.69-35.42 6.36-45.738.06-.403.03-.816-.09-1.204a2.747 2.747 0 00-.63-1.032 2.595 2.595 0 00-2.24-.732zm-11.08 63.322c-.77.294-9.51.322-23.17.252-11.81.07-20.54 0-21.31-.252a4.848 4.848 0 01-2.08-1.98 4.815 4.815 0 01-.58-2.808c0-2.31 1.82-7.266 1.82-12.6 0-1.232-.3-3.976-.74-7.448l4.32 4.69c.6.636 1.31 1.143 2.11 1.49.8.346 1.66.526 2.53.526h29.68a6.326 6.326 0 004.41-1.792l4.52-4.41c-.42 3.234-.69 5.768-.69 7 0 5.278 1.84 10.234 1.84 12.6.08.965-.13 1.931-.61 2.775a4.82 4.82 0 01-2.05 1.957zm5.72-52.234c-.73 4.48-2.21 13.734-3.36 21.686l-4.31 2.674a15.403 15.403 0 01-8.02 2.24h-24.18c-2.75 0-5.44-.735-7.81-2.128l-4.92-2.884c-1.13-7.938-2.6-17.136-3.33-21.588-.04-.311-.02-.628.08-.926.1-.298.27-.568.5-.789.22-.221.49-.386.79-.482.3-.096.62-.12.93-.071a185.55 185.55 0 0024.82 1.932c8.9-.025 17.79-.67 26.6-1.932a1.987 1.987 0 011.67.585c.21.219.37.486.47.778.09.292.12.602.07.905z" fill="#263238" stroke="#263238" stroke-linecap="round" stroke-linejoin="round"/><path d="M1152.19 386.528v-11.662h16.65v12.53l-16.65-.868zm-8.2-26.572s-2.61-.658-2.61 3.458c0 4.116 3.42 6.986 4.82 6.692 1.4-.294-.64-7.994-.87-9.506-.22-1.512-1.34-.644-1.34-.644zm32.42 0s2.59-.658 2.59 3.458c0 4.116-3.4 6.986-4.8 6.692-1.4-.294.64-7.994.85-9.506.21-1.512 1.36-.644 1.36-.644z" fill="#fff" stroke="#263238" stroke-linecap="round" stroke-linejoin="round"/><path d="M1176.47 343.674s1.62-.812-.2-4.676a7.904 7.904 0 00-2.12-2.838c-.92-.773-2-1.33-3.16-1.628 0 0 1.4-.812 1.4-1.624s-1.82-1.008-7.3.616a7.127 7.127 0 00-5.6 6.328c-.11-.06-.21-.111-.33-.154-1.33-.644-6.48-2.94-8.94-1.708-2.8 1.4.4 1.008.4 1.008a12.848 12.848 0 00-8.12 4.872c-3.03 4.2-.81 4.676-.19 4.676.61 0 1.22-1.834 1.22-1.834v3.864s.07.336.19.868c-.85 5.726.66 12.208 1.5 16.282 1.08 5.194 5.4 10.164 8.65 11.2 3.25 1.036 13.18 0 13.18 0a37.632 37.632 0 006.27-8.4c1.8-3.81 2.76-7.965 2.8-12.18a20.126 20.126 0 001.92-7.378c.46-5.264-1.57-7.294-1.57-7.294z" fill="#263238" stroke="#263238" stroke-linecap="round" stroke-linejoin="round"/><path d="M1171.22 365.654s-9.17-4.942-18.2-1.078c-5.22 2.226-9.07 7.77-9.07 7.77a51.653 51.653 0 0114-2.156c5.85.131 11.69.561 17.5 1.288a19.587 19.587 0 00-4.23-5.824zm-47.34 20.524s-23.8 37.576-24.41 41.244c-.62 3.668 3.05 9.17 9.46 8.554 6.41-.616 30.24-.91 30.24-.91l.31-5.81-19.24-2.436 11.61-9.17-7.97-31.472z" fill="#7E57C2" stroke="#263238" stroke-linecap="round" stroke-linejoin="round"/><path d="M1120.24 426.82l-9.47 4.578" stroke="#263238" stroke-linecap="round" stroke-linejoin="round"/><path d="M1197.15 384.666s24.12 39.088 24.72 42.756c.6 3.668-3.05 9.17-9.46 8.554-6.42-.616-30.24-.91-30.24-.91l-.31-5.81 19.25-2.436-11.61-9.17 7.65-32.984z" fill="#7E57C2" stroke="#263238" stroke-linecap="round" stroke-linejoin="round"/><path d="M1201.11 426.82l9.46 4.578" stroke="#263238" stroke-linecap="round" stroke-linejoin="round"/><path d="M1150.9 368.888l-14.7 7.784c-7.35 3.892-11.88 7.56-12.32 9.506-.43 1.946 8.22 63.546 8.22 63.546s5.6 5.46 20.32 6.916c22.03 2.156 31.54-4.76 31.54-4.76s13.19-64.834 13.19-67.2c0-2.366-16.65-10.374-22.47-13.188-5.83-2.814-12.32-5.194-23.78-2.604z" fill="#7E57C2" stroke="#263238" stroke-linecap="round" stroke-linejoin="round"/><path d="M1119.56 467.658l25.72 82.194 7.14-.868-10.6-83.272-22.26 1.946z" fill="#fff" stroke="#263238" stroke-linecap="round" stroke-linejoin="round"/><path d="M1145.28 549.852l1.69 9.394c.07.382.28.722.59.951.32.23.71.33 1.09.281l5.22-.672c.22-.027.43-.102.62-.219.19-.118.35-.274.47-.46s.19-.395.23-.614c.03-.219.01-.442-.06-.653l-2.71-8.876-7.14.868zm53.57-82.194l-25.71 82.194-7.14-.868 10.59-83.272 22.26 1.946z" fill="#fff" stroke="#263238" stroke-linecap="round" stroke-linejoin="round"/><path d="M1173.14 549.852l-1.74 9.394a1.52 1.52 0 01-.59.951c-.32.23-.7.33-1.09.281l-5.22-.672a1.537 1.537 0 01-.62-.219 1.496 1.496 0 01-.47-.46 1.497 1.497 0 01-.22-.614c-.03-.219-.02-.442.05-.653l2.71-8.876 7.19.868zm-19-91.924s-23.55-7.35-27.88-5.18c-4.32 2.17-8.65 7.77-7.14 14 1.52 6.23 14.49 13.832 17.29 14 2.8.168 17.95 0 17.95 0l-.22-22.82zm11.58 0s23.56-7.35 27.88-5.18c4.33 2.17 8.64 7.77 7.13 14-1.51 6.23-14.48 13.832-17.29 14-2.81.168-17.93 0-17.93 0l.21-22.82z" fill="#fff" stroke="#263238" stroke-linecap="round" stroke-linejoin="round"/><path d="M1132.1 449.724s-1.94 21.602-1.3 24.416c.64 2.814 7.35 7.35 21 7.784 13.65.434 30.69 1.078 34.8-3.892 4.12-4.97-2.6-26.152-2.6-26.152s-36.4 3.024-51.9-2.156z" fill="#fff" stroke="#263238" stroke-linecap="round" stroke-linejoin="round"/><path d="M1131.78 559.498a1.53 1.53 0 01-1.04-.53 1.538 1.538 0 01-.36-1.108l4.44-81.718 5.09.406-6.51 81.564c-.03.397-.22.765-.52 1.024-.31.259-.7.389-1.1.362zm55.02 0c.4-.032.78-.223 1.04-.53.26-.307.39-.705.36-1.108l-4.44-81.718-5.09.406 6.51 81.564c.03.397.22.765.53 1.024.3.259.69.389 1.09.362z" fill="#263238" stroke="#263238" stroke-linecap="round" stroke-linejoin="round"/><path d="M1191.9 411.812a247.253 247.253 0 01-34.43 2.534 239.78 239.78 0 01-32.2-2.534 2.617 2.617 0 00-2.25.726c-.29.289-.5.643-.63 1.033-.13.389-.16.804-.1 1.209 1.66 10.332 6.35 40.054 6.35 45.738 0 6.916-2.38 13.412-2.38 16.436 0 3.024 1.29 5.404 3.46 6.258 1 .406 12.32.434 27.64.35 17.74.084 29.06 0 30.06-.35 2.17-.854 3.45-3.234 3.45-6.258s-2.36-9.52-2.36-16.436c0-5.684 4.69-35.42 6.34-45.738.06-.403.03-.816-.09-1.204a2.625 2.625 0 00-.63-1.032 2.595 2.595 0 00-2.23-.732zm-11.09 63.322c-.77.294-9.51.322-23.17.252-11.8.07-20.54 0-21.31-.252a4.776 4.776 0 01-2.07-1.98 4.822 4.822 0 01-.59-2.808c0-2.31 1.83-7.266 1.83-12.6 0-1.232-.29-3.976-.75-7.448l4.34 4.69a6.334 6.334 0 002.1 1.493c.8.347 1.66.525 2.53.523h29.68a6.348 6.348 0 004.41-1.792l4.51-4.41c-.41 3.234-.67 5.768-.67 7 0 5.278 1.82 10.234 1.82 12.6.08.964-.13 1.931-.6 2.775a4.901 4.901 0 01-2.06 1.957zm5.72-52.234c-.72 4.48-2.21 13.734-3.34 21.686l-4.4 2.674a15.38 15.38 0 01-8.01 2.24h-24.1c-2.76.003-5.46-.732-7.83-2.128l-4.9-2.884c-1.15-7.938-2.62-17.136-3.35-21.588-.04-.311-.01-.628.09-.926.1-.298.26-.568.49-.789.22-.221.49-.386.79-.482.3-.096.62-.12.93-.071a185.55 185.55 0 0024.82 1.932c8.88-.027 17.74-.673 26.53-1.932.31-.05.63-.026.93.07.3.096.57.261.79.482.22.222.39.492.49.791.1.298.12.615.07.925z" fill="#263238" stroke="#263238" stroke-linecap="round" stroke-linejoin="round"/><path d="M1135.53 412.218l8.3 30.926 6.47-.924-6.93-28.616-7.84-1.386zm32.78 29.078l6-27.692 8.32-.938-7.86 30.478-6.46-1.848zm-40.56 21.322l11.02 23.002v10.164l-12.02-24.934 1-8.232zm61.81 0l-11.01 23.002v10.164l12-24.934-.99-8.232z" fill="#757575" stroke="#263238" stroke-linecap="round" stroke-linejoin="round"/><path d="M1170.35 435.304s-19.85-1.4-25.86.462c-6 1.862-9.22 6.454-8.76 13.846.46 7.392-3.7 36.008-3.24 43.4.47 7.392 3.24 12.012 15.24 14.322 11.99 2.31 24.47 1.4 31.4-1.4s10.23-13.356 5.99-24.472c-4.24-11.116-3.18-28.21-5.03-36.512-1.84-8.302-6.51-9.184-9.74-9.646z" fill="#7E57C2" stroke="#263238" stroke-linecap="round" stroke-linejoin="round"/><path d="M1181.55 490.968c0 .168-.32 4.578-.36 4.746-3.25 12.334-20.65 10.374-30.3 8.764-4.8-.798-12-3.22-13.86-8.4-2.03-5.6.6-12.6 1.61-18.27.62-3.514.97-14.28 4.94-16.072 3.98-1.792 28.11-4.382 31.77 2.912 4.09 8.204 4.74 16.828 6.2 26.32z" fill="#7E57C2" stroke="#263238" stroke-linecap="round" stroke-linejoin="round"/><path d="M1163.29 443.858h-9.12v5.11h9.12v-5.11zm-23.36 34.342h39.44a5.929 5.929 0 01-1.22 3.994 5.943 5.943 0 01-3.53 2.222c-5.89 1.26-12.39 1.022-18.37 1.036-5.36-.014-16.94.784-16.32-7.252z" fill="#263238" stroke="#263238" stroke-linecap="round" stroke-linejoin="round"/><path d="M964.998 463.696l13.384 85.764 7.168.434 1.694-84.084-22.246-2.114z" fill="#7E57C2" stroke="#263238" stroke-linecap="round" stroke-linejoin="round"/><path d="M978.382 549.46v9.534a1.528 1.528 0 001.4 1.526l5.264.28a1.538 1.538 0 001.181-.483 1.528 1.528 0 00.401-1.211l-1.064-9.212-7.182-.434z" fill="#fff" stroke="#263238" stroke-linecap="round" stroke-linejoin="round"/><path d="M1017.3 463.906l-14.87 85.456-7.164.28-.252-84.098 22.286-1.638z" fill="#7E57C2" stroke="#263238" stroke-linecap="round" stroke-linejoin="round"/><path d="M1002.43 549.362l-.16 9.534a1.55 1.55 0 01-.42 1.019 1.5 1.5 0 01-.98.479l-5.268.168a1.524 1.524 0 01-1.554-1.722l1.26-9.198 7.122-.28zM960.784 380.83s-22.4 43.4-23.03 47.096c-.63 3.696 3.066 9.17 9.478 8.554 6.412-.616 23.1-.91 23.1-.91l.308-5.81-19.236-2.436 11.606-9.17-2.226-37.324z" fill="#fff" stroke="#263238" stroke-linecap="round" stroke-linejoin="round"/><path d="M951.404 427.324l-2.338 4.578" stroke="#263238" stroke-linecap="round" stroke-linejoin="round"/><path d="M1021.03 379.892s22.56 44.38 23.17 48.034c.6 3.654-3.06 9.17-9.47 8.554-6.41-.616-21.39-.91-21.39-.91l-.31-5.81 10.4-2.436-6.56-9.114 4.16-38.318z" fill="#fff" stroke="#263238" stroke-linecap="round" stroke-linejoin="round"/><path d="M1023.43 427.324l9.47 4.578" stroke="#263238" stroke-linecap="round" stroke-linejoin="round"/><path d="M982.064 369.406l-14.7 7.77c-7.35 3.892-6.16 1.708-6.58 3.654-.42 1.946 2.478 69.37 2.478 69.37s5.6 5.474 20.314 6.916c22.054 2.156 31.554-4.76 31.554-4.76s5.6-68.236 5.6-70.616c0-2.38-9.1-7-14.94-9.8-5.834-2.8-12.274-5.138-23.726-2.534z" fill="#fff" stroke="#263238" stroke-linecap="round" stroke-linejoin="round"/><path d="M963.262 450.2s-1.946 21.616-1.302 24.416c.644 2.8 7.35 7.35 21 7.784 13.65.434 30.69 1.078 34.79-3.892 4.1-4.97-2.59-26.152-2.59-26.152s-36.344 3.052-51.898-2.156z" fill="#7E57C2" stroke="#263238" stroke-linecap="round" stroke-linejoin="round"/><path d="M992.2 327.084s-7-4.2-14.392 3.836c-7.392 8.036.322 23.996 1.274 27.832.952 3.836-12.782 25.648-12.782 35.448s11.9 19.6 30.716 17.654c18.814-1.946 21.114-11.844 18.554-23.674-2.57-11.83-5.45-24.318-5.45-29.4 0-5.082 4.48-16.632.32-27.832s-14.39-8.022-18.24-3.864z" fill="#263238" stroke="#263238" stroke-linecap="round" stroke-linejoin="round"/><path d="M981.98 360.67l8.638 8.316s-8.96 21.434-9.926 27.188c-.966 5.754 4.2 11.2 11.2 10.556 7-.644 11.518-6.72 11.198-11.83-.32-5.11-5.444-26.236-5.444-26.236a28.777 28.777 0 0010.874-9.912" stroke="gray" stroke-linecap="round" stroke-linejoin="round"/><path d="M990.618 369s.322-2.24 7-.322" stroke="#263238" stroke-linecap="round" stroke-linejoin="round"/><path d="M962.94 560.002a1.527 1.527 0 01-1.4-1.624l4.438-81.732 5.096.42-6.51 81.55a1.513 1.513 0 01-1.624 1.386zm54.95 0a1.516 1.516 0 001.4-1.624l-4.42-81.732-5.1.42 6.51 81.55c.03.396.22.764.52 1.023.3.26.69.39 1.09.363z" fill="#263238" stroke="#263238" stroke-linecap="round" stroke-linejoin="round"/><path d="M1023.11 412.316a247.161 247.161 0 01-34.41 2.534 237.578 237.578 0 01-32.2-2.534 2.61 2.61 0 00-2.242.737 2.607 2.607 0 00-.726 2.245c1.652 10.318 6.342 40.04 6.342 45.738 0 6.916-2.38 13.398-2.38 16.422 0 3.024 1.302 5.404 3.458 6.272.994.392 12.32.42 27.636.336 17.742.084 29.062 0 30.072-.336 2.16-.868 3.46-3.248 3.46-6.272s-2.38-9.506-2.38-16.422c0-5.698 4.69-35.42 6.34-45.738.07-.405.04-.821-.09-1.213a2.526 2.526 0 00-.63-1.039 2.593 2.593 0 00-2.25-.73zm-11.09 63.322c-.77.308-9.5.322-23.166.266-11.802 0-20.538 0-21.308-.266a4.828 4.828 0 01-2.66-4.788c0-2.31 1.834-7.252 1.834-12.53 0-1.246-.294-3.99-.742-7.448l4.326 4.676a6.327 6.327 0 002.105 1.5 6.326 6.326 0 002.529.53h29.682a6.246 6.246 0 004.38-1.778l4.51-4.396c-.41 3.22-.67 5.754-.67 7 0 5.278 1.83 10.22 1.83 12.53.08.958-.13 1.918-.6 2.756a4.898 4.898 0 01-2.05 1.948zm5.73-52.234c-.73 4.48-2.2 13.734-3.35 21.686l-4.38 2.674a15.381 15.381 0 01-8.02 2.254h-24.108a15.391 15.391 0 01-7.826-2.142l-4.9-2.884c-1.148-7.924-2.618-17.122-3.332-21.588a1.978 1.978 0 01.076-.929 1.978 1.978 0 011.29-1.275c.3-.094.619-.117.93-.064a185.275 185.275 0 0024.808 1.946 193.605 193.605 0 0026.602-1.946c.3-.038.61-.005.9.097.29.101.55.268.77.488.21.219.37.486.47.778.09.292.12.602.07.905z" fill="#263238" stroke="#263238" stroke-linecap="round" stroke-linejoin="round"/><path d="M853.684 368.118v-11.662h16.632v12.53l-16.632-.868zm-8.218-26.572s-2.59-.658-2.59 3.458c0 4.116 3.458 6.902 4.746 6.692 1.288-.21-.644-7.994-.854-9.506-.21-1.512-1.302-.644-1.302-.644zm32.424 0s2.604-.658 2.604 3.458c0 4.116-3.458 6.902-4.76 6.692-1.302-.21.644-7.994.868-9.506.224-1.512 1.288-.644 1.288-.644z" fill="#fff" stroke="#263238" stroke-linecap="round" stroke-linejoin="round"/><path d="M856.918 321.008s-7.35 1.078-10.374 7.56c-3.024 6.482-.854 15.568.224 20.748 1.078 5.18 5.404 10.164 8.638 11.2 3.234 1.036 13.188 0 13.188 0a37.77 37.77 0 006.272-8.4c3.024-5.404 3.458-15.568 2.156-21.392s-5.838-11.676-9.296-12.11c-3.458-.434-6.692 2.8-6.692 2.8a6.133 6.133 0 00-4.116-.406z" fill="#263238" stroke="#263238" stroke-linecap="round" stroke-linejoin="round"/><path d="M872.696 365.962s-12.6-1.946-18.2-1.078c-5.6.868-9.072 7.77-9.072 7.77a51.887 51.887 0 0114-2.156c5.852.133 11.693.568 17.5 1.302a19.733 19.733 0 00-4.228-5.838zm-47.32 20.524s-23.814 37.59-24.416 41.314c-.602 3.724 3.052 9.17 9.464 8.554 6.412-.616 30.24-.91 30.24-.91l.294-5.81-19.236-2.436L833.328 418l-7.952-31.514z" fill="#fff" stroke="#263238" stroke-linecap="round" stroke-linejoin="round"/><path d="M821.722 427.128l-9.464 4.578" stroke="#263238" stroke-linecap="round" stroke-linejoin="round"/><path d="M898.638 384.974s24.108 39.102 24.724 42.756c.616 3.654-3.052 9.17-9.478 8.554-6.426-.616-30.226-.91-30.226-.91l-.308-5.81 19.25-2.436L890.98 418l7.658-33.026z" fill="#fff" stroke="#263238" stroke-linecap="round" stroke-linejoin="round"/><path d="M902.586 427.128l9.478 4.578" stroke="#263238" stroke-linecap="round" stroke-linejoin="round"/><path d="M852.382 369.196l-14.7 7.784c-7.336 3.892-11.886 7.56-12.306 9.506-.42 1.946 8.204 63.546 8.204 63.546s5.6 5.46 20.314 6.916c22.05 2.156 31.556-4.76 31.556-4.76s13.188-64.834 13.188-67.2c0-2.366-16.646-10.388-22.484-13.188-5.838-2.8-12.32-5.194-23.772-2.604z" fill="#fff" stroke="#263238" stroke-linecap="round" stroke-linejoin="round"/><path d="M821.05 467.966l25.718 82.194 7.126-.854-10.584-83.286-22.26 1.946z" fill="#7E57C2" stroke="#263238" stroke-linecap="round" stroke-linejoin="round"/><path d="M846.768 550.16l1.68 9.394a1.522 1.522 0 001.694 1.232l5.222-.672a1.517 1.517 0 001.075-.683 1.519 1.519 0 00.171-1.263l-2.716-8.862-7.126.854z" fill="#fff" stroke="#263238" stroke-linecap="round" stroke-linejoin="round"/><path d="M900.332 467.966l-25.718 82.194-7.126-.854 10.584-83.286 22.26 1.946z" fill="#7E57C2" stroke="#263238" stroke-linecap="round" stroke-linejoin="round"/><path d="M874.6 550.16l-1.68 9.394a1.526 1.526 0 01-1.694 1.232l-5.222-.672a1.517 1.517 0 01-1.075-.683 1.52 1.52 0 01-.171-1.263l2.716-8.862 7.126.854z" fill="#fff" stroke="#263238" stroke-linecap="round" stroke-linejoin="round"/><path d="M855.63 458.236S832.068 450.9 827.742 453c-4.326 2.1-8.638 7.784-7.126 14 1.512 6.216 14.476 13.832 17.29 14 2.814.168 17.934 0 17.934 0l-.21-22.764zm11.578 0s23.548-7.336 27.874-5.18c4.326 2.156 8.652 7.784 7.126 14-1.526 6.216-14.476 13.832-17.29 14-2.814.168-17.934 0-17.934 0l.224-22.82z" fill="#7E57C2" stroke="#263238" stroke-linecap="round" stroke-linejoin="round"/><path d="M833.58 450.032s-1.946 21.616-1.302 24.416c.644 2.8 7.35 7.35 21 7.784 13.65.434 30.688 1.078 34.79-3.892s-2.59-26.152-2.59-26.152-36.33 3.024-51.898-2.156z" fill="#7E57C2" stroke="#263238" stroke-linecap="round" stroke-linejoin="round"/><path d="M833.272 559.806a1.505 1.505 0 01-1.4-1.624l4.424-81.732 5.096.42-6.496 81.55a1.513 1.513 0 01-1.624 1.386zm54.936 0a1.517 1.517 0 001.329-1.036c.062-.19.086-.389.071-.588l-4.424-81.732-5.096.42 6.51 81.55a1.51 1.51 0 001.61 1.386z" fill="#263238" stroke="#263238" stroke-linecap="round" stroke-linejoin="round"/><path d="M893.388 412.12a247.27 247.27 0 01-34.426 2.534 239.529 239.529 0 01-32.2-2.534 2.601 2.601 0 00-2.982 2.982c1.652 10.318 6.342 40.04 6.342 45.738 0 6.916-2.38 13.398-2.38 16.422 0 3.024 1.302 5.404 3.458 6.272 1.008.392 12.334.42 27.65.336 17.724.084 29.064 0 30.058-.336 2.156-.868 3.458-3.248 3.458-6.272s-2.38-9.506-2.38-16.422c0-5.698 4.69-35.434 6.342-45.752a2.586 2.586 0 00-.086-1.204 2.568 2.568 0 00-1.652-1.666 2.565 2.565 0 00-1.202-.098zM882.3 475.4c-.77.294-9.506.322-23.184.266-11.802 0-20.524 0-21.294-.266a4.834 4.834 0 01-2.674-4.788c0-2.31 1.834-7.252 1.834-12.53 0-1.246-.294-3.99-.742-7.448l4.326 4.676a6.333 6.333 0 004.634 2.03h29.68a6.261 6.261 0 004.41-1.806l4.522-4.396c-.42 3.22-.686 5.754-.686 7 0 5.278 1.834 10.22 1.834 12.53a4.833 4.833 0 01-2.66 4.732zm5.712-52.234c-.714 4.48-2.198 13.734-3.346 21.686l-4.382 2.674a15.407 15.407 0 01-8.022 2.24h-24.108c-2.748 0-5.445-.735-7.812-2.128l-4.942-2.842c-1.134-7.938-2.604-17.122-3.332-21.588a1.993 1.993 0 01.573-1.715 2 2 0 011.723-.553 185.496 185.496 0 0024.836 1.932c8.9-.025 17.789-.671 26.6-1.932a1.994 1.994 0 011.669.585 1.985 1.985 0 01.543 1.683v-.042z" fill="#263238" stroke="#263238" stroke-linecap="round" stroke-linejoin="round"/><path d="M723.4 560.8H1380" stroke="#263238" stroke-linecap="round" stroke-linejoin="round"/><path d="M1170.05 246.5V257h-2.41v-8.52h-4.74V257h-2.42v-10.5h9.57zm6.21 10.62c-.85 0-1.62-.175-2.3-.525a4.01 4.01 0 01-1.57-1.485c-.38-.63-.57-1.345-.57-2.145s.19-1.515.57-2.145c.38-.63.9-1.12 1.57-1.47.68-.36 1.45-.54 2.3-.54.85 0 1.61.18 2.28.54.67.35 1.19.84 1.57 1.47.38.63.57 1.345.57 2.145s-.19 1.515-.57 2.145a4.01 4.01 0 01-1.57 1.485c-.67.35-1.43.525-2.28.525zm0-1.92c.6 0 1.09-.2 1.47-.6.39-.41.58-.955.58-1.635s-.19-1.22-.58-1.62c-.38-.41-.87-.615-1.47-.615s-1.1.205-1.49.615c-.39.4-.58.94-.58 1.62 0 .68.19 1.225.58 1.635.39.4.89.6 1.49.6zm14.96-.12v3.66h-2.18V257h-5.67v1.74h-2.17v-3.66h.33c.5-.01.84-.305 1.03-.885.19-.58.31-1.405.36-2.475l.11-2.79h7.03v6.15h1.16zm-6.18-3.195c-.03.82-.1 1.49-.2 2.01-.09.52-.26.915-.52 1.185h3.4v-4.23h-2.64l-.04 1.035zm14.12-1.035h-4.14V257h-2.33v-8.07h6.47v1.92zm4.68 6.27c-.85 0-1.62-.175-2.3-.525a4.01 4.01 0 01-1.57-1.485c-.38-.63-.57-1.345-.57-2.145s.19-1.515.57-2.145c.38-.63.9-1.12 1.57-1.47.68-.36 1.45-.54 2.3-.54.85 0 1.61.18 2.28.54.67.35 1.19.84 1.57 1.47.38.63.57 1.345.57 2.145s-.19 1.515-.57 2.145a4.01 4.01 0 01-1.57 1.485c-.67.35-1.43.525-2.28.525zm0-1.92c.6 0 1.09-.2 1.47-.6.39-.41.58-.955.58-1.635s-.19-1.22-.58-1.62c-.38-.41-.87-.615-1.47-.615s-1.1.205-1.49.615c-.39.4-.58.94-.58 1.62 0 .68.19 1.225.58 1.635.39.4.89.6 1.49.6zm12.52-4.35h-2.73V257h-2.32v-6.15h-2.73v-1.92h7.78v1.92zm4.69 6.27c-.85 0-1.61-.175-2.29-.525-.67-.36-1.2-.855-1.58-1.485-.38-.63-.57-1.345-.57-2.145s.19-1.515.57-2.145c.38-.63.91-1.12 1.58-1.47.68-.36 1.44-.54 2.29-.54.85 0 1.61.18 2.28.54.67.35 1.2.84 1.58 1.47.38.63.57 1.345.57 2.145s-.19 1.515-.57 2.145c-.38.63-.91 1.125-1.58 1.485-.67.35-1.43.525-2.28.525zm0-1.92c.6 0 1.09-.2 1.47-.6.39-.41.59-.955.59-1.635s-.2-1.22-.59-1.62c-.38-.41-.87-.615-1.47-.615s-1.09.205-1.48.615c-.39.4-.59.94-.59 1.62 0 .68.2 1.225.59 1.635.39.4.88.6 1.48.6zm12.2-2.415c.95.32 1.43.96 1.43 1.92 0 .73-.28 1.295-.83 1.695-.55.4-1.37.6-2.46.6h-4.3v-8.07h4.12c1.01 0 1.8.185 2.37.555.57.36.86.87.86 1.53 0 .4-.11.755-.32 1.065-.2.3-.49.535-.87.705zm-4.02-.54h1.77c.82 0 1.23-.29 1.23-.87 0-.57-.41-.855-1.23-.855h-1.77v1.725zm1.97 3.165c.86 0 1.29-.295 1.29-.885 0-.31-.1-.535-.3-.675-.2-.15-.52-.225-.95-.225h-2.01v1.785h1.97zm8.77-1.47h-1.21V257h-2.34v-8.07h2.34v3.135h1.26l2.19-3.135h2.49l-2.82 3.87 3.01 4.2h-2.76l-2.16-3.06zm9.06-5.13c1.25 0 2.21.3 2.88.9.67.59 1 1.485 1 2.685V257h-2.19v-1.005c-.44.75-1.26 1.125-2.46 1.125-.62 0-1.16-.105-1.62-.315-.45-.21-.79-.5-1.03-.87s-.36-.79-.36-1.26c0-.75.28-1.34.84-1.77.57-.43 1.44-.645 2.62-.645h1.86c0-.51-.15-.9-.46-1.17-.31-.28-.78-.42-1.4-.42-.43 0-.85.07-1.27.21-.41.13-.76.31-1.05.54l-.84-1.635c.44-.31.96-.55 1.57-.72.62-.17 1.26-.255 1.91-.255zm-.18 6.735c.4 0 .75-.09 1.06-.27.31-.19.53-.465.66-.825v-.825h-1.6c-.96 0-1.44.315-1.44.945 0 .3.11.54.34.72.24.17.57.255.98.255zm-84.26 10.955V277h-1.08v-9.54h-2.48v-.96h3.56zm6.69 10.59c-.81 0-1.53-.215-2.17-.645-.63-.43-1.13-1.045-1.49-1.845-.35-.81-.52-1.76-.52-2.85s.17-2.035.52-2.835c.36-.81.86-1.43 1.49-1.86.64-.43 1.36-.645 2.17-.645.81 0 1.53.215 2.16.645.64.43 1.14 1.05 1.5 1.86.36.8.54 1.745.54 2.835 0 1.09-.18 2.04-.54 2.85-.36.8-.86 1.415-1.5 1.845-.63.43-1.35.645-2.16.645zm0-.99c.61 0 1.15-.17 1.61-.51.47-.34.83-.835 1.09-1.485.26-.65.39-1.435.39-2.355 0-.92-.13-1.705-.39-2.355-.26-.65-.62-1.145-1.09-1.485-.46-.34-1-.51-1.61-.51-.61 0-1.15.17-1.62.51-.46.34-.82.835-1.08 1.485-.26.65-.39 1.435-.39 2.355 0 .92.13 1.705.39 2.355.26.65.62 1.145 1.08 1.485.47.34 1.01.51 1.62.51zm5.99-3.63h3.93v.93h-3.93v-.93zm8.27-5.97V277h-1.08v-9.54h-2.48v-.96h3.56zm5.42 0V277h-1.08v-9.54h-2.48v-.96h3.56zm10.03 6.99h-1.8V277h-1.06v-7.89h1.06v3.465h1.82l2.77-3.465h1.16l-3.11 3.825 3.33 4.065h-1.26l-2.91-3.51zm12.3-4.38V277h-1.06v-6.945h-3.78l-.11 1.95c-.08 1.64-.27 2.9-.57 3.78-.3.88-.83 1.32-1.6 1.32-.21 0-.47-.04-.77-.12l.08-.915c.18.04.3.06.37.06.41 0 .72-.19.93-.57.21-.38.35-.85.42-1.41.07-.56.13-1.3.18-2.22l.14-2.82h5.77zm5.75-.06c1.03 0 1.82.26 2.37.78.55.51.82 1.27.82 2.28V277h-1.02v-1.23c-.24.41-.59.73-1.06.96-.46.23-1.01.345-1.65.345-.88 0-1.58-.21-2.1-.63-.52-.42-.78-.975-.78-1.665 0-.67.24-1.21.72-1.62.49-.41 1.26-.615 2.32-.615h2.51v-.48c0-.68-.19-1.195-.57-1.545-.38-.36-.94-.54-1.67-.54-.5 0-.98.085-1.44.255-.46.16-.85.385-1.18.675l-.48-.795c.4-.34.88-.6 1.44-.78.56-.19 1.15-.285 1.77-.285zm-.38 7.185c.6 0 1.12-.135 1.55-.405.43-.28.75-.68.96-1.2v-1.29h-2.48c-1.35 0-2.02.47-2.02 1.41 0 .46.17.825.52 1.095.35.26.84.39 1.47.39zm9.71.84c-.78 0-1.48-.17-2.1-.51a3.72 3.72 0 01-1.44-1.425 4.17 4.17 0 01-.53-2.085c0-.77.18-1.46.53-2.07a3.72 3.72 0 011.44-1.425c.62-.34 1.32-.51 2.1-.51.68 0 1.28.135 1.81.405.54.26.97.645 1.28 1.155l-.8.54c-.26-.39-.59-.68-.99-.87-.4-.2-.83-.3-1.3-.3-.57 0-1.09.13-1.55.39-.45.25-.8.61-1.06 1.08-.25.47-.38 1.005-.38 1.605 0 .61.13 1.15.38 1.62.26.46.61.82 1.06 1.08.46.25.98.375 1.55.375.47 0 .9-.095 1.3-.285.4-.19.73-.48.99-.87l.8.54c-.31.51-.74.9-1.28 1.17-.54.26-1.14.39-1.81.39zm8.32 0c-.78 0-1.48-.17-2.1-.51a3.72 3.72 0 01-1.44-1.425 4.17 4.17 0 01-.53-2.085c0-.77.18-1.46.53-2.07a3.72 3.72 0 011.44-1.425c.62-.34 1.32-.51 2.1-.51.68 0 1.28.135 1.81.405.54.26.97.645 1.28 1.155l-.8.54c-.26-.39-.59-.68-.99-.87-.4-.2-.83-.3-1.3-.3-.57 0-1.09.13-1.55.39-.45.25-.8.61-1.06 1.08-.25.47-.38 1.005-.38 1.605 0 .61.13 1.15.38 1.62.26.46.61.82 1.06 1.08.46.25.98.375 1.55.375.47 0 .9-.095 1.3-.285.4-.19.73-.48.99-.87l.8.54c-.31.51-.74.9-1.28 1.17-.54.26-1.14.39-1.81.39zm8.46-5.175c.99.01 1.75.23 2.27.66.52.43.78 1.05.78 1.86 0 .84-.28 1.485-.84 1.935-.56.45-1.36.67-2.4.66l-3.12-.015v-7.89h1.06v2.76l2.25.03zm4.37-2.79h1.06V277h-1.06v-7.89zm-4.62 7.095c.73.01 1.28-.135 1.65-.435.38-.31.57-.76.57-1.35 0-.58-.19-1.01-.56-1.29-.37-.28-.92-.425-1.66-.435l-2-.03v3.51l2 .03zM1130.04 286.5V297h-1.07v-8.4l-4.12 7.065h-.53l-4.12-7.02V297h-1.07v-10.5h.92l4.56 7.785 4.51-7.785h.92zm6 2.55c1.03 0 1.82.26 2.37.78.55.51.82 1.27.82 2.28V297h-1.02v-1.23c-.24.41-.59.73-1.06.96-.46.23-1.01.345-1.65.345-.88 0-1.58-.21-2.1-.63-.52-.42-.78-.975-.78-1.665 0-.67.24-1.21.72-1.62.49-.41 1.26-.615 2.32-.615h2.51v-.48c0-.68-.19-1.195-.57-1.545-.38-.36-.94-.54-1.67-.54-.5 0-.98.085-1.44.255-.46.16-.85.385-1.18.675l-.48-.795c.4-.34.88-.6 1.44-.78.56-.19 1.15-.285 1.77-.285zm-.38 7.185c.6 0 1.12-.135 1.55-.405.43-.28.75-.68.96-1.2v-1.29h-2.48c-1.35 0-2.02.47-2.02 1.41 0 .46.17.825.52 1.095.35.26.84.39 1.47.39zm11.96-6.18h-2.99V297h-1.06v-6.945h-2.99v-.945h7.04v.945zm8.07 3.33h-6.6c.06.82.38 1.485.95 1.995.57.5 1.29.75 2.16.75.49 0 .94-.085 1.35-.255.41-.18.76-.44 1.06-.78l.6.69c-.35.42-.79.74-1.32.96-.52.22-1.09.33-1.72.33-.81 0-1.53-.17-2.16-.51-.62-.35-1.11-.83-1.46-1.44-.35-.61-.52-1.3-.52-2.07 0-.77.16-1.46.49-2.07.34-.61.8-1.085 1.38-1.425.59-.34 1.25-.51 1.98-.51s1.39.17 1.97.51c.58.34 1.03.815 1.36 1.425.33.6.5 1.29.5 2.07l-.02.33zm-3.81-3.42c-.76 0-1.4.245-1.92.735-.51.48-.8 1.11-.87 1.89h5.6c-.07-.78-.37-1.41-.89-1.89-.51-.49-1.15-.735-1.92-.735zm15-.855V297h-.97v-6.24l-3.2 5.28h-.48l-3.19-5.295V297h-.98v-7.89h1.08l3.35 5.685 3.4-5.685h.99zm5.75-.06c1.03 0 1.82.26 2.37.78.55.51.82 1.27.82 2.28V297h-1.02v-1.23c-.24.41-.59.73-1.06.96-.46.23-1.01.345-1.65.345-.88 0-1.58-.21-2.1-.63-.52-.42-.78-.975-.78-1.665 0-.67.24-1.21.72-1.62.49-.41 1.26-.615 2.32-.615h2.51v-.48c0-.68-.19-1.195-.57-1.545-.38-.36-.94-.54-1.67-.54-.5 0-.98.085-1.44.255-.46.16-.85.385-1.18.675l-.48-.795c.4-.34.88-.6 1.44-.78.56-.19 1.15-.285 1.77-.285zm-.38 7.185c.6 0 1.12-.135 1.55-.405.43-.28.75-.68.96-1.2v-1.29h-2.48c-1.35 0-2.02.47-2.02 1.41 0 .46.17.825.52 1.095.35.26.84.39 1.47.39zm11.96-6.18h-2.99V297h-1.06v-6.945h-2.99v-.945h7.04v.945zm1.54-.945h1.06v6.27l5.27-6.27h.94V297h-1.06v-6.27l-5.25 6.27h-.96v-7.89zm13.19 4.38h-1.8V297h-1.06v-7.89h1.06v3.465h1.82l2.77-3.465h1.16l-3.11 3.825 3.33 4.065h-1.26l-2.91-3.51zm8.42-4.44c1.03 0 1.82.26 2.37.78.55.51.83 1.27.83 2.28V297h-1.02v-1.23c-.24.41-.6.73-1.07.96-.46.23-1.01.345-1.65.345-.88 0-1.58-.21-2.1-.63-.52-.42-.78-.975-.78-1.665 0-.67.24-1.21.72-1.62.49-.41 1.27-.615 2.33-.615h2.5v-.48c0-.68-.19-1.195-.57-1.545-.38-.36-.93-.54-1.66-.54-.5 0-.98.085-1.44.255-.46.16-.86.385-1.19.675l-.48-.795c.4-.34.88-.6 1.44-.78.56-.19 1.15-.285 1.77-.285zm-.37 7.185c.6 0 1.11-.135 1.54-.405.43-.28.75-.68.96-1.2v-1.29h-2.47c-1.35 0-2.03.47-2.03 1.41 0 .46.18.825.53 1.095.35.26.84.39 1.47.39zm12.11 3.675c-.56-.92-.99-1.975-1.29-3.165-.3-1.2-.45-2.485-.45-3.855s.15-2.655.45-3.855c.3-1.21.73-2.265 1.29-3.165h1.02a11.985 11.985 0 00-1.3 3.255c-.27 1.16-.41 2.415-.41 3.765s.14 2.605.41 3.765c.28 1.16.71 2.245 1.3 3.255h-1.02zm10.23-10.8V297h-1.06v-6.945h-4.95V297h-1.07v-7.89h7.08zm7.1-.06c.74 0 1.41.17 2.01.51.6.33 1.07.8 1.41 1.41.34.61.51 1.305.51 2.085 0 .79-.17 1.49-.51 2.1-.34.61-.81 1.085-1.41 1.425-.59.33-1.26.495-2.01.495-.64 0-1.22-.13-1.74-.39-.51-.27-.93-.66-1.26-1.17v4.395h-1.07v-10.8h1.02v1.56c.32-.52.74-.92 1.26-1.2.53-.28 1.13-.42 1.79-.42zm-.08 7.08c.55 0 1.05-.125 1.5-.375.45-.26.8-.625 1.05-1.095.26-.47.39-1.005.39-1.605 0-.6-.13-1.13-.39-1.59-.25-.47-.6-.835-1.05-1.095-.45-.26-.95-.39-1.5-.39-.56 0-1.06.13-1.51.39-.44.26-.79.625-1.05 1.095-.25.46-.38.99-.38 1.59 0 .6.13 1.135.38 1.605.26.47.61.835 1.05 1.095.45.25.95.375 1.51.375zm9.55.945c-.76 0-1.45-.17-2.06-.51-.61-.35-1.09-.83-1.44-1.44-.35-.61-.52-1.3-.52-2.07 0-.77.17-1.46.52-2.07a3.72 3.72 0 011.44-1.425c.61-.34 1.3-.51 2.06-.51s1.44.17 2.05.51c.61.34 1.09.815 1.43 1.425.35.61.52 1.3.52 2.07 0 .77-.17 1.46-.52 2.07-.34.61-.82 1.09-1.43 1.44-.61.34-1.29.51-2.05.51zm0-.945c.56 0 1.06-.125 1.5-.375.45-.26.8-.625 1.05-1.095s.37-1.005.37-1.605c0-.6-.12-1.135-.37-1.605s-.6-.83-1.05-1.08c-.44-.26-.94-.39-1.5-.39s-1.07.13-1.52.39c-.44.25-.79.61-1.05 1.08-.25.47-.37 1.005-.37 1.605 0 .6.12 1.135.37 1.605.26.47.61.835 1.05 1.095.45.25.96.375 1.52.375zm15.81-3.09c0 1.23-.41 2.195-1.22 2.895-.81.7-1.95 1.08-3.43 1.14v2.835h-1.04v-2.82c-1.47-.06-2.61-.44-3.42-1.14-.8-.71-1.2-1.68-1.2-2.91 0-1.22.4-2.175 1.2-2.865.81-.69 1.95-1.065 3.42-1.125v-3.18h1.04v3.18c1.48.07 2.62.45 3.43 1.14s1.22 1.64 1.22 2.85zm-9.26 0c0 .94.3 1.675.9 2.205.61.53 1.5.83 2.67.9v-6.15c-1.16.06-2.04.355-2.65.885-.61.52-.92 1.24-.92 2.16zm4.61 3.105c1.17-.06 2.06-.355 2.67-.885.62-.53.93-1.27.93-2.22 0-.93-.31-1.655-.93-2.175-.61-.52-1.5-.81-2.67-.87v6.15zm6.9-7.035h1.06v6.27l5.27-6.27h.94V297h-1.06v-6.27l-5.25 6.27h-.96v-7.89zm16.77 0V297h-1.06v-6.945h-3.78l-.11 1.95c-.08 1.64-.27 2.9-.57 3.78-.3.88-.83 1.32-1.6 1.32-.21 0-.47-.04-.77-.12l.08-.915c.18.04.3.06.37.06.41 0 .72-.19.93-.57.21-.38.35-.85.42-1.41.07-.56.13-1.3.18-2.22l.14-2.82h5.77zm6.42 2.79c.99.01 1.74.23 2.25.66.52.43.78 1.05.78 1.86 0 .84-.28 1.485-.84 1.935-.55.45-1.35.67-2.4.66l-3.18-.015v-7.89h1.07v2.76l2.32.03zm-.27 4.305c.73.01 1.28-.135 1.65-.435.38-.31.57-.76.57-1.35 0-.58-.18-1.01-.55-1.29-.37-.28-.93-.425-1.67-.435l-2.05-.03v3.51l2.05.03zm4.42 3.705c.59-1.01 1.02-2.09 1.3-3.24.28-1.16.42-2.42.42-3.78 0-1.36-.14-2.615-.42-3.765-.28-1.16-.71-2.245-1.3-3.255h1.02c.56.9.99 1.955 1.29 3.165.31 1.2.46 2.485.46 3.855s-.15 2.655-.45 3.855c-.3 1.2-.73 2.255-1.3 3.165h-1.02zm-137.73 6.59h1.09v8.7l6.72-8.7h1.01V317h-1.1v-8.685l-6.72 8.685h-1v-10.5zm12.1 2.61h1.07v3.495h4.96v-3.495h1.07V317h-1.07v-3.48h-4.96V317h-1.07v-7.89zm19.65 3.93c0 1.23-.4 2.195-1.21 2.895-.81.7-1.96 1.08-3.44 1.14v2.835h-1.03v-2.82c-1.47-.06-2.61-.44-3.42-1.14-.8-.71-1.2-1.68-1.2-2.91 0-1.22.4-2.175 1.2-2.865.81-.69 1.95-1.065 3.42-1.125v-3.18h1.03v3.18c1.48.07 2.63.45 3.44 1.14s1.21 1.64 1.21 2.85zm-9.25 0c0 .94.3 1.675.9 2.205.61.53 1.5.83 2.67.9v-6.15c-1.16.06-2.05.355-2.66.885-.61.52-.91 1.24-.91 2.16zm4.6 3.105c1.17-.06 2.06-.355 2.67-.885.62-.53.93-1.27.93-2.22 0-.93-.31-1.655-.93-2.175-.61-.52-1.5-.81-2.67-.87v6.15zm10.16.93c-.76 0-1.45-.17-2.06-.51-.61-.35-1.09-.83-1.44-1.44-.35-.61-.52-1.3-.52-2.07 0-.77.17-1.46.52-2.07a3.72 3.72 0 011.44-1.425c.61-.34 1.3-.51 2.06-.51s1.44.17 2.05.51c.61.34 1.09.815 1.43 1.425.35.61.52 1.3.52 2.07 0 .77-.17 1.46-.52 2.07-.34.61-.82 1.09-1.43 1.44-.61.34-1.29.51-2.05.51zm0-.945c.56 0 1.06-.125 1.5-.375.45-.26.8-.625 1.05-1.095s.37-1.005.37-1.605c0-.6-.12-1.135-.37-1.605s-.6-.83-1.05-1.08c-.44-.26-.94-.39-1.5-.39s-1.07.13-1.52.39c-.44.25-.79.61-1.05 1.08-.25.47-.37 1.005-.37 1.605 0 .6.12 1.135.37 1.605.26.47.61.835 1.05 1.095.45.25.96.375 1.52.375zm10.34-7.08c.74 0 1.41.17 2.01.51.6.33 1.07.8 1.41 1.41.34.61.51 1.305.51 2.085 0 .79-.17 1.49-.51 2.1-.34.61-.81 1.085-1.41 1.425-.59.33-1.26.495-2.01.495-.64 0-1.22-.13-1.74-.39-.51-.27-.93-.66-1.26-1.17v4.395h-1.06v-10.8h1.02v1.56c.32-.52.74-.92 1.26-1.2.53-.28 1.12-.42 1.78-.42zm-.07 7.08c.55 0 1.05-.125 1.5-.375.45-.26.8-.625 1.05-1.095.26-.47.39-1.005.39-1.605 0-.6-.13-1.13-.39-1.59-.25-.47-.6-.835-1.05-1.095-.45-.26-.95-.39-1.5-.39-.56 0-1.07.13-1.52.39-.44.26-.79.625-1.05 1.095-.25.46-.37.99-.37 1.59 0 .6.12 1.135.37 1.605.26.47.61.835 1.05 1.095.45.25.96.375 1.52.375zm15.11-7.02V317h-.97v-6.24l-3.2 5.28h-.48l-3.19-5.295V317h-.98v-7.89h1.08l3.35 5.685 3.4-5.685h.99zm5.75-.06c1.03 0 1.82.26 2.37.78.55.51.82 1.27.82 2.28V317h-1.02v-1.23c-.24.41-.59.73-1.06.96-.46.23-1.01.345-1.65.345-.88 0-1.58-.21-2.1-.63-.52-.42-.78-.975-.78-1.665 0-.67.24-1.21.72-1.62.49-.41 1.26-.615 2.32-.615h2.51v-.48c0-.68-.19-1.195-.57-1.545-.38-.36-.94-.54-1.67-.54-.5 0-.98.085-1.44.255-.46.16-.85.385-1.18.675l-.48-.795c.4-.34.88-.6 1.44-.78.56-.19 1.15-.285 1.77-.285zm-.38 7.185c.6 0 1.12-.135 1.55-.405.43-.28.75-.68.96-1.2v-1.29h-2.48c-1.35 0-2.02.47-2.02 1.41 0 .46.17.825.52 1.095.35.26.84.39 1.47.39zm11.96-6.18h-2.99V317h-1.06v-6.945h-2.99v-.945h7.04v.945zm1.54-.945h1.06v6.27l5.27-6.27h.94V317h-1.06v-6.27l-5.25 6.27h-.96v-7.89zm13.19 4.38h-1.8V317h-1.06v-7.89h1.06v3.465h1.82l2.77-3.465h1.16l-3.11 3.825 3.33 4.065h-1.26l-2.91-3.51zm8.42-4.44c1.03 0 1.82.26 2.37.78.55.51.82 1.27.82 2.28V317h-1.02v-1.23c-.24.41-.59.73-1.06.96-.46.23-1.01.345-1.65.345-.88 0-1.58-.21-2.1-.63-.52-.42-.78-.975-.78-1.665 0-.67.24-1.21.72-1.62.49-.41 1.26-.615 2.32-.615h2.51v-.48c0-.68-.19-1.195-.57-1.545-.38-.36-.94-.54-1.67-.54-.5 0-.98.085-1.44.255-.46.16-.85.385-1.18.675l-.48-.795c.4-.34.88-.6 1.44-.78.56-.19 1.15-.285 1.77-.285zm-.38 7.185c.6 0 1.12-.135 1.55-.405.43-.28.75-.68.96-1.2v-1.29h-2.48c-1.35 0-2.02.47-2.02 1.41 0 .46.17.825.52 1.095.35.26.84.39 1.47.39zM959.502 271.16c.651.224 1.158.576 1.52 1.056.374.469.56 1.019.56 1.648 0 .683-.224 1.275-.672 1.776-.448.501-1.056.885-1.824 1.152-.757.267-1.589.4-2.496.4a9.468 9.468 0 01-2.304-.288 8.439 8.439 0 01-2.16-.88l.8-1.856c.491.299 1.03.528 1.616.688a7.201 7.201 0 001.744.224c.768 0 1.403-.139 1.904-.416.512-.277.768-.667.768-1.168 0-.416-.176-.731-.528-.944-.341-.213-.81-.32-1.408-.32h-2.736v-1.952h2.544c.523 0 .928-.107 1.216-.32.299-.213.448-.507.448-.88 0-.437-.213-.779-.64-1.024-.416-.245-.954-.368-1.616-.368-.49 0-.997.069-1.52.208a5.79 5.79 0 00-1.488.592l-.784-2.016a8.284 8.284 0 013.84-.912c.875 0 1.68.128 2.416.384s1.323.629 1.76 1.12a2.49 2.49 0 01.656 1.712c0 .533-.144 1.008-.432 1.424a2.78 2.78 0 01-1.184.96zm7.284-2.896c1.334 0 2.358.32 3.072.96.715.629 1.072 1.584 1.072 2.864V277h-2.336v-1.072c-.469.8-1.344 1.2-2.624 1.2-.661 0-1.237-.112-1.728-.336-.48-.224-.848-.533-1.104-.928a2.417 2.417 0 01-.384-1.344c0-.8.299-1.429.896-1.888.608-.459 1.542-.688 2.8-.688h1.984c0-.544-.165-.96-.496-1.248-.33-.299-.826-.448-1.488-.448-.458 0-.912.075-1.36.224-.437.139-.81.331-1.12.576l-.896-1.744c.47-.331 1.03-.587 1.68-.768a7.669 7.669 0 012.032-.272zm-.192 7.184c.427 0 .806-.096 1.136-.288.331-.203.566-.496.704-.88v-.88h-1.712c-1.024 0-1.536.336-1.536 1.008 0 .32.123.576.368.768.256.181.603.272 1.04.272zm6.504-7.056h2.48v3.36h3.744v-3.36h2.496V277h-2.496v-3.216h-3.744V277h-2.48v-8.608zm18.758 0V277h-2.224v-2.464h-1.84L986.16 277h-2.656l1.968-2.816c-.598-.235-1.056-.571-1.376-1.008-.31-.448-.464-.987-.464-1.616 0-1.013.362-1.792 1.088-2.336.736-.555 1.744-.832 3.024-.832h4.112zm-4.064 2.032c-.534 0-.939.096-1.216.288-.267.192-.4.501-.4.928 0 .427.128.741.384.944.266.192.666.288 1.2.288h1.872v-2.448h-1.84zm13.698.016h-2.915V277h-2.48v-6.56h-2.912v-2.048h8.307v2.048zm1.33-2.048h2.48v5.12l4.19-5.12h2.29V277h-2.48v-5.12l-4.18 5.12h-2.3v-8.608zm19.72 4.336c0 .032-.01.256-.04.672h-6.52c.12.533.4.955.84 1.264.43.309.98.464 1.63.464.45 0 .84-.064 1.18-.192.35-.139.68-.352.98-.64l1.33 1.44c-.81.928-2 1.392-3.56 1.392-.97 0-1.82-.187-2.57-.56a4.23 4.23 0 01-1.73-1.584 4.394 4.394 0 01-.61-2.288c0-.843.2-1.6.59-2.272.41-.683.96-1.211 1.65-1.584a4.85 4.85 0 012.35-.576c.85 0 1.61.181 2.29.544.69.363 1.22.885 1.6 1.568.4.672.59 1.456.59 2.352zm-4.46-2.576c-.56 0-1.04.16-1.42.48-.39.32-.62.757-.71 1.312h4.24c-.08-.544-.32-.976-.7-1.296-.39-.331-.85-.496-1.41-.496zM968.256 285.8V297h-1.152v-10.176h-2.64V285.8h3.792zm10.326 10.176V297h-7.856v-.816l4.656-4.56c.586-.576.981-1.072 1.184-1.488.213-.427.32-.853.32-1.28 0-.661-.23-1.173-.688-1.536-.448-.373-1.094-.56-1.936-.56-1.312 0-2.331.416-3.056 1.248l-.816-.704a4.302 4.302 0 011.664-1.184c.682-.277 1.45-.416 2.304-.416 1.141 0 2.042.272 2.704.816.672.533 1.008 1.269 1.008 2.208a3.8 3.8 0 01-.384 1.664c-.256.533-.742 1.147-1.456 1.84l-3.808 3.744h6.16zm4.389-5.584c1.622 0 2.8.293 3.536.88.747.576 1.12 1.387 1.12 2.432 0 .651-.154 1.232-.464 1.744-.298.512-.752.917-1.36 1.216-.608.288-1.354.432-2.24.432-.8 0-1.562-.128-2.288-.384-.714-.267-1.29-.619-1.728-1.056l.56-.912c.374.384.864.699 1.472.944a5.412 5.412 0 001.968.352c.928 0 1.643-.208 2.144-.624.512-.416.768-.971.768-1.664 0-.768-.288-1.349-.864-1.744-.565-.395-1.525-.592-2.88-.592h-2.384l.576-5.616h6.128v1.024h-5.12l-.384 3.568h1.44zm10.583 6.704c-.864 0-1.638-.229-2.32-.688-.672-.459-1.2-1.115-1.584-1.968-.374-.864-.56-1.877-.56-3.04s.186-2.171.56-3.024c.384-.864.912-1.525 1.584-1.984.682-.459 1.456-.688 2.32-.688.864 0 1.632.229 2.304.688.682.459 1.216 1.12 1.6 1.984.384.853.576 1.861.576 3.024s-.192 2.176-.576 3.04c-.384.853-.918 1.509-1.6 1.968-.672.459-1.44.688-2.304.688zm0-1.056c.65 0 1.221-.181 1.712-.544.501-.363.89-.891 1.168-1.584.277-.693.416-1.531.416-2.512 0-.981-.139-1.819-.416-2.512-.278-.693-.667-1.221-1.168-1.584-.491-.363-1.062-.544-1.712-.544-.651 0-1.227.181-1.728.544-.491.363-.875.891-1.152 1.584-.278.693-.416 1.531-.416 2.512 0 .981.138 1.819.416 2.512.277.693.661 1.221 1.152 1.584a2.869 2.869 0 001.728.544zm8.646-2.8v.976h3.6v.704h-3.6V297h-1.19v-2.08h-1.678v-.704h1.678V285.8h4.19c1.44 0 2.56.325 3.36.976.81.64 1.22 1.552 1.22 2.736 0 1.195-.41 2.117-1.22 2.768-.8.64-1.92.96-3.36.96h-3zm0-6.416v5.408h3.02c1.09 0 1.92-.235 2.5-.704.58-.469.88-1.136.88-2 0-.864-.3-1.531-.88-2-.58-.469-1.41-.704-2.5-.704h-3.02zm-4.388-86.724V212h-2.737v-9.656h-5.372V212h-2.737v-11.9h10.846zm8.138 2.618c.85 0 1.62.198 2.31.595.7.385 1.25.935 1.65 1.649.39.703.59 1.524.59 2.465 0 .941-.2 1.768-.59 2.482-.4.703-.95 1.252-1.65 1.649-.69.385-1.46.578-2.31.578-1.17 0-2.09-.368-2.76-1.105v4.267h-2.65v-12.444h2.53v1.054c.66-.793 1.62-1.19 2.88-1.19zm-.46 7.242c.68 0 1.23-.227 1.66-.68.45-.465.67-1.082.67-1.853 0-.771-.22-1.383-.67-1.836-.43-.465-.98-.697-1.66-.697-.68 0-1.24.232-1.69.697-.43.453-.64 1.065-.64 1.836 0 .771.21 1.388.64 1.853.45.453 1.01.68 1.69.68zm11.16 2.176c-.97 0-1.83-.198-2.61-.595a4.606 4.606 0 01-1.78-1.683c-.43-.714-.65-1.524-.65-2.431s.22-1.717.65-2.431a4.486 4.486 0 011.78-1.666c.78-.408 1.64-.612 2.61-.612.96 0 1.82.204 2.58.612.76.397 1.35.952 1.78 1.666.44.714.65 1.524.65 2.431s-.21 1.717-.65 2.431a4.538 4.538 0 01-1.78 1.683c-.76.397-1.62.595-2.58.595zm0-2.176c.68 0 1.23-.227 1.66-.68.44-.465.66-1.082.66-1.853 0-.771-.22-1.383-.66-1.836-.43-.465-.98-.697-1.66-.697-.68 0-1.25.232-1.69.697-.44.453-.66 1.065-.66 1.836 0 .771.22 1.388.66 1.853.44.453 1.01.68 1.69.68zm16.95-.136v4.148h-2.46V212h-6.43v1.972h-2.46v-4.148h.37c.57-.011.96-.346 1.17-1.003.22-.657.35-1.592.41-2.805l.12-3.162h7.97v6.97h1.31zm-7-3.621c-.04.929-.11 1.689-.22 2.278-.1.589-.3 1.037-.6 1.343h3.86v-4.794h-2.99l-.05 1.173zm12.96 5.933c-.97 0-1.83-.198-2.61-.595a4.606 4.606 0 01-1.78-1.683c-.43-.714-.65-1.524-.65-2.431s.22-1.717.65-2.431a4.486 4.486 0 011.78-1.666c.78-.408 1.64-.612 2.61-.612.96 0 1.82.204 2.58.612.76.397 1.35.952 1.78 1.666.44.714.65 1.524.65 2.431s-.21 1.717-.65 2.431a4.538 4.538 0 01-1.78 1.683c-.76.397-1.62.595-2.58.595zm0-2.176c.68 0 1.23-.227 1.66-.68.44-.465.66-1.082.66-1.853 0-.771-.22-1.383-.66-1.836-.43-.465-.98-.697-1.66-.697-.68 0-1.25.232-1.69.697-.44.453-.66 1.065-.66 1.836 0 .771.22 1.388.66 1.853.44.453 1.01.68 1.69.68zm15.47-7.106V212h-2.65v-6.97h-2.89l-.08 1.615c-.05 1.201-.16 2.199-.34 2.992-.18.793-.48 1.417-.89 1.87-.41.453-.97.68-1.7.68-.38 0-.84-.068-1.37-.204l.13-2.176c.18.023.31.034.39.034.4 0 .69-.142.89-.425.2-.295.34-.663.4-1.105.07-.453.12-1.048.16-1.785l.13-3.672h7.82zm11.62 5.678h-1.28V212h-2.62v-3.468h-1.27l-1.94 3.468h-3.13l2.87-4.726-2.66-4.42h2.8l2.02 3.553h1.31v-3.553h2.62v3.553h1.29l2.04-3.553h2.81l-2.67 4.42 2.89 4.726h-3.15l-1.93-3.468zm6.46-5.678h2.63v5.44l4.46-5.44h2.43V212h-2.64v-5.44l-4.44 5.44h-2.44v-9.146zm19.75 2.176h-3.09V212h-2.64v-6.97h-3.09v-2.176h8.82v2.176zm9.92 2.431c0 .034-.01.272-.05.714h-6.92c.13.567.42 1.014.89 1.343.46.329 1.04.493 1.73.493.48 0 .9-.068 1.26-.204.37-.147.72-.374 1.04-.68l1.41 1.53c-.86.986-2.12 1.479-3.78 1.479-1.03 0-1.94-.198-2.73-.595-.8-.408-1.41-.969-1.84-1.683-.43-.714-.65-1.524-.65-2.431 0-.895.21-1.7.63-2.414a4.505 4.505 0 011.75-1.683c.75-.408 1.58-.612 2.5-.612.9 0 1.71.193 2.43.578.73.385 1.3.941 1.7 1.666.42.714.63 1.547.63 2.499zm-4.74-2.737c-.6 0-1.11.17-1.51.51-.41.34-.66.805-.75 1.394h4.5c-.09-.578-.34-1.037-.74-1.377-.41-.351-.91-.527-1.5-.527zm15.46-1.87V212h-2.65v-6.97h-2.89l-.08 1.615c-.05 1.201-.16 2.199-.34 2.992-.18.793-.48 1.417-.89 1.87-.4.453-.97.68-1.7.68-.38 0-.84-.068-1.37-.204l.13-2.176c.18.023.31.034.39.034.4 0 .69-.142.89-.425.2-.295.34-.663.41-1.105.06-.453.11-1.048.15-1.785l.13-3.672h7.82zm7.5 2.924c1.19.011 2.1.283 2.74.816.63.521.95 1.264.95 2.227 0 1.009-.36 1.796-1.07 2.363-.7.555-1.69.833-2.98.833l-4.59-.017v-9.146h2.64v2.924h2.31zm-.59 4.352c.51.011.9-.096 1.17-.323.27-.227.41-.567.41-1.02 0-.442-.14-.765-.41-.969-.26-.204-.65-.312-1.17-.323l-1.72-.017v2.652h1.72zm5.94-7.276h2.63v3.57h3.98v-3.57h2.65V212h-2.65v-3.417h-3.98V212h-2.63v-9.146zm16.09 9.282c-.97 0-1.83-.198-2.61-.595a4.606 4.606 0 01-1.78-1.683c-.43-.714-.65-1.524-.65-2.431s.22-1.717.65-2.431a4.486 4.486 0 011.78-1.666c.78-.408 1.64-.612 2.61-.612.96 0 1.82.204 2.58.612.76.397 1.35.952 1.78 1.666.44.714.65 1.524.65 2.431s-.21 1.717-.65 2.431a4.538 4.538 0 01-1.78 1.683c-.76.397-1.62.595-2.58.595zm0-2.176c.68 0 1.23-.227 1.66-.68.44-.465.66-1.082.66-1.853 0-.771-.22-1.383-.66-1.836-.43-.465-.98-.697-1.66-.697-.68 0-1.25.232-1.69.697-.44.453-.66 1.065-.66 1.836 0 .771.22 1.388.66 1.853.44.453 1.01.68 1.69.68zm11.19 2.176c-.98 0-1.86-.198-2.64-.595a4.648 4.648 0 01-1.82-1.683c-.43-.714-.64-1.524-.64-2.431s.21-1.717.64-2.431a4.53 4.53 0 011.82-1.666c.78-.408 1.66-.612 2.64-.612.96 0 1.8.204 2.51.612a3.51 3.51 0 011.58 1.717l-2.05 1.105c-.48-.839-1.17-1.258-2.06-1.258-.69 0-1.26.227-1.72.68-.45.453-.68 1.071-.68 1.853s.23 1.4.68 1.853c.46.453 1.03.68 1.72.68.91 0 1.59-.419 2.06-1.258l2.05 1.122a3.624 3.624 0 01-1.58 1.7c-.71.408-1.55.612-2.51.612zm13.36-7.106h-3.1V212h-2.63v-6.97h-3.1v-2.176h8.83v2.176zm6.36.748c1.19.011 2.1.283 2.73.816.64.521.96 1.264.96 2.227 0 1.009-.36 1.796-1.08 2.363-.7.555-1.69.833-2.97.833l-4.59-.017v-9.146h2.63v2.924h2.32zm-.6 4.352c.51.011.9-.096 1.17-.323.28-.227.41-.567.41-1.02 0-.442-.13-.765-.41-.969-.26-.204-.65-.312-1.17-.323l-1.72-.017v2.652h1.72zm14.79-1.598h-1.38V212h-2.65v-9.146h2.65v3.553h1.43l2.48-3.553h2.82l-3.2 4.386 3.42 4.76h-3.13l-2.44-3.468zm15.52-5.678l-4.13 9.707c-.42 1.054-.94 1.796-1.56 2.227-.61.431-1.36.646-2.23.646-.48 0-.95-.074-1.41-.221a3.11 3.11 0 01-1.14-.612l.97-1.887c.2.181.44.323.7.425.27.102.53.153.8.153.36 0 .65-.091.88-.272.23-.17.43-.459.61-.867l.04-.085-3.97-9.214h2.74l2.57 6.205 2.58-6.205h2.55zm6.67-.136c.85 0 1.62.198 2.31.595.71.385 1.26.935 1.65 1.649.4.703.6 1.524.6 2.465 0 .941-.2 1.768-.6 2.482a4.18 4.18 0 01-1.65 1.649c-.69.385-1.46.578-2.31.578-1.17 0-2.08-.368-2.75-1.105v4.267h-2.66v-12.444h2.54v1.054c.66-.793 1.61-1.19 2.87-1.19zm-.46 7.242c.68 0 1.24-.227 1.67-.68.44-.465.66-1.082.66-1.853 0-.771-.22-1.383-.66-1.836-.43-.465-.99-.697-1.67-.697-.68 0-1.24.232-1.68.697-.43.453-.65 1.065-.65 1.836 0 .771.22 1.388.65 1.853.44.453 1 .68 1.68.68zm11.23 2.176c-.98 0-1.86-.198-2.64-.595a4.718 4.718 0 01-1.82-1.683c-.43-.714-.64-1.524-.64-2.431s.21-1.717.64-2.431a4.595 4.595 0 011.82-1.666c.78-.408 1.66-.612 2.64-.612.96 0 1.8.204 2.51.612.73.397 1.26.969 1.58 1.717l-2.05 1.105c-.48-.839-1.16-1.258-2.06-1.258-.69 0-1.26.227-1.72.68-.45.453-.68 1.071-.68 1.853s.23 1.4.68 1.853c.46.453 1.03.68 1.72.68.91 0 1.59-.419 2.06-1.258l2.05 1.122c-.32.725-.85 1.292-1.58 1.7-.71.408-1.55.612-2.51.612zm9.87 0c-.96 0-1.83-.198-2.6-.595a4.538 4.538 0 01-1.78-1.683c-.43-.714-.65-1.524-.65-2.431s.22-1.717.65-2.431a4.421 4.421 0 011.78-1.666c.77-.408 1.64-.612 2.6-.612.97 0 1.83.204 2.59.612.76.397 1.35.952 1.78 1.666.43.714.65 1.524.65 2.431s-.22 1.717-.65 2.431a4.538 4.538 0 01-1.78 1.683c-.76.397-1.62.595-2.59.595zm0-2.176c.68 0 1.24-.227 1.67-.68.44-.465.66-1.082.66-1.853 0-.771-.22-1.383-.66-1.836-.43-.465-.99-.697-1.67-.697-.68 0-1.24.232-1.68.697-.44.453-.66 1.065-.66 1.836 0 .771.22 1.388.66 1.853.44.453 1 .68 1.68.68zm13.83-2.737c1.08.363 1.61 1.088 1.61 2.176 0 .827-.31 1.468-.93 1.921-.62.453-1.55.68-2.79.68h-4.88v-9.146h4.68c1.14 0 2.04.21 2.68.629.65.408.97.986.97 1.734 0 .453-.12.856-.35 1.207-.23.34-.56.606-.99.799zm-4.56-.612h2.01c.93 0 1.39-.329 1.39-.986 0-.646-.46-.969-1.39-.969h-2.01v1.955zm2.23 3.587c.98 0 1.46-.334 1.46-1.003 0-.351-.11-.606-.34-.765-.22-.17-.58-.255-1.07-.255h-2.28v2.023h2.23zm-191.53 21.994c-.93 0-1.76-.229-2.48-.688-.73-.459-1.3-1.12-1.71-1.984-.41-.875-.61-1.915-.61-3.12s.2-2.24.61-3.104c.41-.875.98-1.541 1.71-2 .72-.459 1.55-.688 2.48-.688.93 0 1.75.229 2.48.688.72.459 1.29 1.125 1.69 2 .42.864.63 1.899.63 3.104s-.21 2.245-.63 3.12c-.4.864-.97 1.525-1.69 1.984-.73.459-1.55.688-2.48.688zm0-2.192c.68 0 1.21-.293 1.6-.88.39-.587.59-1.493.59-2.72s-.2-2.133-.59-2.72c-.39-.587-.92-.88-1.6-.88-.67 0-1.21.293-1.6.88-.39.587-.58 1.493-.58 2.72s.19 2.133.58 2.72c.39.587.93.88 1.6.88zm9.99-9.392c1.57 0 2.8.48 3.68 1.44.89.949 1.33 2.32 1.33 4.112 0 1.269-.24 2.357-.72 3.264-.47.907-1.13 1.595-2 2.064-.86.469-1.86.704-2.99.704-.6 0-1.17-.064-1.71-.192-.55-.139-1.01-.331-1.39-.576l.96-1.904c.54.373 1.24.56 2.09.56.95 0 1.7-.277 2.26-.832.55-.565.85-1.376.89-2.432-.67.672-1.6 1.008-2.78 1.008-.72 0-1.37-.144-1.95-.432a3.393 3.393 0 01-1.39-1.216c-.35-.533-.52-1.147-.52-1.84 0-.747.19-1.403.56-1.968.38-.565.88-.997 1.52-1.296.65-.309 1.37-.464 2.16-.464zm.2 5.28c.56 0 1.02-.155 1.37-.464.36-.32.55-.725.55-1.216s-.18-.891-.53-1.2c-.34-.309-.82-.464-1.43-.464-.55 0-1 .149-1.36.448-.34.299-.51.704-.51 1.216s.17.923.51 1.232c.36.299.82.448 1.4.448zm7.32 6.24c-.43 0-.8-.149-1.1-.448-.3-.299-.45-.672-.45-1.12 0-.459.15-.827.45-1.104.3-.288.67-.432 1.1-.432.44 0 .81.144 1.11.432.3.277.45.645.45 1.104 0 .448-.15.821-.45 1.12-.3.299-.67.448-1.11.448zm6.79-11.328V232h-2.59v-9.12h-2.24v-2.08h4.83zm6.74 11.392c-.92 0-1.75-.229-2.48-.688-.72-.459-1.29-1.12-1.71-1.984-.4-.875-.61-1.915-.61-3.12s.21-2.24.61-3.104c.42-.875.99-1.541 1.71-2 .73-.459 1.56-.688 2.48-.688.93 0 1.76.229 2.48.688.73.459 1.3 1.125 1.7 2 .42.864.62 1.899.62 3.104s-.2 2.245-.62 3.12c-.4.864-.97 1.525-1.7 1.984-.72.459-1.55.688-2.48.688zm0-2.192c.69 0 1.22-.293 1.6-.88.4-.587.6-1.493.6-2.72s-.2-2.133-.6-2.72c-.38-.587-.91-.88-1.6-.88-.67 0-1.2.293-1.6.88-.38.587-.57 1.493-.57 2.72s.19 2.133.57 2.72c.4.587.93.88 1.6.88zm7.33 2.128c-.43 0-.8-.149-1.1-.448-.3-.299-.45-.672-.45-1.12 0-.459.15-.827.45-1.104.3-.288.67-.432 1.1-.432.44 0 .81.144 1.11.432.3.277.45.645.45 1.104 0 .448-.15.821-.45 1.12-.3.299-.67.448-1.11.448zm11.24-2.24V232h-8.46v-1.68l4.32-4.08c.46-.437.77-.811.93-1.12.16-.32.24-.635.24-.944 0-.448-.16-.789-.47-1.024-.3-.245-.74-.368-1.33-.368-.49 0-.93.096-1.32.288-.4.181-.73.459-1 .832l-1.88-1.216c.43-.651 1.04-1.157 1.8-1.52.77-.373 1.65-.56 2.64-.56.84 0 1.56.139 2.18.416.63.267 1.12.651 1.46 1.152.35.491.52 1.072.52 1.744 0 .608-.12 1.179-.38 1.712-.26.533-.75 1.141-1.49 1.824l-2.57 2.432h4.81zm5.39-9.088V232h-2.59v-9.12h-2.24v-2.08h4.83zm6.69 5.696h4.53v2h-4.53v-2zm14.81-5.696V232h-2.59v-9.12h-2.24v-2.08h4.83zm12.2 8.848h-1.82V232h-2.53v-2.352h-6.03v-1.744l5.28-7.104h2.72l-4.9 6.736h3.01v-2.096h2.45v2.096h1.82v2.112zm2.56 2.48c-.43 0-.8-.149-1.1-.448-.3-.299-.45-.672-.45-1.12 0-.459.15-.827.45-1.104.3-.288.67-.432 1.1-.432.44 0 .81.144 1.11.432.3.277.45.645.45 1.104 0 .448-.15.821-.45 1.12-.3.299-.67.448-1.11.448zm7.32.064c-.93 0-1.76-.229-2.48-.688-.73-.459-1.3-1.12-1.72-1.984-.4-.875-.6-1.915-.6-3.12s.2-2.24.6-3.104c.42-.875.99-1.541 1.72-2 .72-.459 1.55-.688 2.48-.688.92 0 1.75.229 2.48.688.72.459 1.29 1.125 1.69 2 .42.864.63 1.899.63 3.104s-.21 2.245-.63 3.12c-.4.864-.97 1.525-1.69 1.984-.73.459-1.56.688-2.48.688zm0-2.192c.68 0 1.21-.293 1.6-.88.39-.587.59-1.493.59-2.72s-.2-2.133-.59-2.72c-.39-.587-.92-.88-1.6-.88s-1.21.293-1.6.88c-.39.587-.58 1.493-.58 2.72s.19 2.133.58 2.72c.39.587.92.88 1.6.88zm9.9-4.992c1.57 0 2.74.315 3.48.944.76.629 1.14 1.472 1.14 2.528 0 .683-.17 1.307-.51 1.872-.34.555-.87 1.003-1.57 1.344-.69.331-1.55.496-2.58.496-.79 0-1.56-.101-2.33-.304-.76-.213-1.41-.512-1.94-.896l1.03-1.984c.42.32.91.571 1.47.752.55.171 1.12.256 1.71.256.65 0 1.16-.128 1.54-.384.37-.256.56-.613.56-1.072 0-.48-.2-.843-.6-1.088-.38-.245-1.05-.368-2.01-.368h-2.87l.58-6.304h6.83v2.08h-4.67l-.18 2.128h.92zm7.14 7.12c-.43 0-.8-.149-1.1-.448-.3-.299-.45-.672-.45-1.12 0-.459.15-.827.45-1.104.3-.288.67-.432 1.1-.432.44 0 .81.144 1.11.432.3.277.45.645.45 1.104 0 .448-.15.821-.45 1.12-.3.299-.67.448-1.11.448zm11.24-2.24V232h-8.46v-1.68l4.32-4.08c.46-.437.77-.811.93-1.12.16-.32.24-.635.24-.944 0-.448-.16-.789-.47-1.024-.3-.245-.74-.368-1.33-.368-.49 0-.93.096-1.32.288-.4.181-.73.459-1 .832l-1.88-1.216c.43-.651 1.04-1.157 1.8-1.52.77-.373 1.65-.56 2.64-.56.84 0 1.56.139 2.18.416.63.267 1.12.651 1.46 1.152.35.491.52 1.072.52 1.744 0 .608-.12 1.179-.38 1.712-.26.533-.75 1.141-1.49 1.824l-2.57 2.432h4.81zm9.44 0V232h-8.46v-1.68l4.32-4.08c.46-.437.76-.811.92-1.12.16-.32.24-.635.24-.944 0-.448-.15-.789-.46-1.024-.3-.245-.74-.368-1.33-.368-.49 0-.93.096-1.33.288-.39.181-.72.459-.99.832l-1.89-1.216c.44-.651 1.04-1.157 1.81-1.52.77-.373 1.65-.56 2.64-.56.83 0 1.56.139 2.18.416.63.267 1.11.651 1.45 1.152.36.491.53 1.072.53 1.744 0 .608-.13 1.179-.38 1.712-.26.533-.75 1.141-1.49 1.824l-2.58 2.432h4.82z" fill="#000"/><defs><radialGradient id="paint0_radial_2_1226" cx="0" cy="0" r="1" gradientUnits="userSpaceOnUse" gradientTransform="rotate(138.634 720 271.821) scale(959.352)"><stop stop-color="#C22C87"/><stop offset="1" stop-color="#C22C87" stop-opacity="0"/></radialGradient></defs></svg>